<svg width="20" height="22" viewBox="0 0 20 22" fill="none" xmlns="http://www.w3.org/2000/svg">
<path d="M5.64739 9H3.35261C3.15773 9 3 9.15773 3 9.35261V11.6474C3 11.842 3.15773 12 3.35261 12H5.64739C5.84227 12 6 11.842 6 11.6474V9.35261C6 9.15797 5.84227 9 5.64739 9ZM5.29478 11.2948H3.70522V9.70522H5.29478V11.2948Z" fill="#818181"/>
<path d="M11.5299 9H8.47015C8.21031 9 8 9.15773 8 9.35261V11.6474C8 11.842 8.21031 12 8.47015 12H11.5299C11.7894 12 12 11.842 12 11.6474V9.35261C12 9.15797 11.7894 9 11.5299 9ZM11.0597 11.2948H8.94029V9.70522H11.0597V11.2948Z" fill="#818181"/>
<path d="M16.6474 9H14.3526C14.158 9 14 9.15773 14 9.35261V11.6474C14 11.842 14.158 12 14.3526 12H16.6474C16.842 12 17 11.842 17 11.6474V9.35261C17 9.15797 16.842 9 16.6474 9ZM16.2948 11.2948H14.7052V9.70522H16.2948V11.2948Z" fill="#818181"/>
<path d="M5.64739 15H3.35261C3.15773 15 3 15.158 3 15.3526V17.6474C3 17.842 3.15773 18 3.35261 18H5.64739C5.84227 18 6 17.842 6 17.6474V15.3526C6 15.158 5.84227 15 5.64739 15ZM5.29478 17.2948H3.70522V15.7052H5.29478V17.2948Z" fill="#818181"/>
<path d="M11.5299 15H8.47015C8.21031 15 8 15.158 8 15.3526V17.6474C8 17.842 8.21031 18 8.47015 18H11.5299C11.7894 18 12 17.842 12 17.6474V15.3526C12 15.158 11.7894 15 11.5299 15ZM11.0597 17.2948H8.94029V15.7052H11.0597V17.2948Z" fill="#818181"/>
<path d="M16.6474 15H14.3526C14.158 15 14 15.158 14 15.3526V17.6474C14 17.842 14.158 18 14.3526 18H16.6474C16.842 18 17 17.842 17 17.6474V15.3526C17 15.158 16.842 15 16.6474 15ZM16.2948 17.2948H14.7052V15.7052H16.2948V17.2948Z" fill="#818181"/>
<path d="M19.6285 1.96513H17.1746C17.1714 1.96513 17.1687 1.96587 17.1655 1.96612V1.47037C17.1655 0.659509 16.5071 0 15.6977 0C14.8882 0 14.2299 0.659757 14.2299 1.47037V1.96513H11.4649V1.47037C11.4649 0.659509 10.8066 0 9.99715 0C9.18771 0 8.52936 0.659757 8.52936 1.47037V1.96513H5.76418V1.47037C5.76418 0.659509 5.10582 0 4.29638 0C3.48694 0 2.82859 0.659757 2.82859 1.47037V1.96538C2.82735 1.96538 2.82611 1.96513 2.82487 1.96513H0.371531C0.166198 1.96513 0 2.13162 0 2.33731V21.6278C0 21.8333 0.166198 22 0.371531 22H19.6285C19.8336 22 20 21.8333 20 21.6278V2.33731C20 2.13162 19.8336 1.96513 19.6285 1.96513ZM14.9729 1.47037C14.9729 1.0699 15.2979 0.744367 15.6977 0.744367C16.0974 0.744367 16.4224 1.0699 16.4224 1.47037V3.52408C16.4224 3.9243 16.0974 4.25008 15.6977 4.25008C15.2979 4.25008 14.9729 3.92455 14.9729 3.52408V1.47037ZM9.99715 0.744367C10.3967 0.744367 10.7219 1.0699 10.7219 1.47037V3.52408C10.7219 3.9243 10.3969 4.25008 9.99715 4.25008C9.59738 4.25008 9.27242 3.92455 9.27242 3.52408V2.37205C9.27341 2.36039 9.27589 2.34922 9.27589 2.33706C9.27589 2.3249 9.27341 2.31374 9.27242 2.30208V1.47037C9.27242 1.0699 9.59738 0.744367 9.99715 0.744367ZM3.57165 1.47037C3.57165 1.0699 3.89662 0.744367 4.29638 0.744367C4.6959 0.744367 5.02112 1.0699 5.02112 1.47037V3.52408C5.02112 3.9243 4.69615 4.25008 4.29638 4.25008C3.89662 4.25008 3.57165 3.92455 3.57165 3.52408V1.47037ZM19.2569 21.2556H0.743062V2.70949H2.82487C2.82611 2.70949 2.82735 2.70925 2.82859 2.70925V3.52433C2.82859 4.33519 3.48719 4.9947 4.29638 4.9947C5.10558 4.9947 5.76418 4.33519 5.76418 3.52433V2.70974H8.52936V3.52433C8.52936 4.33519 9.18796 4.9947 9.99715 4.9947C10.8063 4.9947 11.4649 4.33519 11.4649 3.52433V2.70974H14.2299V3.52433C14.2299 4.33519 14.8882 4.9947 15.6977 4.9947C16.5071 4.9947 17.1655 4.33519 17.1655 3.52433V2.7085C17.1687 2.7085 17.1714 2.70949 17.1746 2.70949H19.2569V21.2556Z" fill="#818181"/>
</svg>
