<svg width="28" height="27" viewBox="0 0 28 27" fill="none" xmlns="http://www.w3.org/2000/svg">
<path d="M12.9258 2.35062C13.2661 1.58073 13.4364 1.19578 13.6733 1.07724C13.8792 0.974252 14.1209 0.974252 14.3267 1.07724C14.5637 1.19578 14.7339 1.58073 15.0743 2.35062L17.7852 8.48288C17.8859 8.71047 17.9362 8.82427 18.0141 8.91141C18.0829 8.98852 18.1672 9.0502 18.2611 9.09242C18.3674 9.14015 18.4903 9.15322 18.7361 9.17937L25.3582 9.88408C26.1896 9.97255 26.6052 10.0168 26.7903 10.2074C26.951 10.373 27.0256 10.6048 26.9921 10.834C26.9536 11.0979 26.6431 11.38 26.0221 11.9443L21.0755 16.439C20.892 16.6057 20.8001 16.6892 20.742 16.7907C20.6906 16.8807 20.6584 16.9805 20.6476 17.0836C20.6354 17.2003 20.661 17.3221 20.7123 17.566L22.094 24.1337C22.2675 24.9583 22.3542 25.3705 22.2316 25.6068C22.125 25.8123 21.9295 25.9555 21.7029 25.9942C21.4421 26.0386 21.08 25.8281 20.3558 25.407L14.5876 22.0525C14.3736 21.928 14.2666 21.8659 14.1528 21.8414C14.0521 21.8199 13.948 21.8199 13.8473 21.8414C13.7335 21.8659 13.6264 21.928 13.4124 22.0525L7.64424 25.407C6.92007 25.8281 6.55798 26.0386 6.29716 25.9942C6.07059 25.9555 5.875 25.8123 5.7685 25.6068C5.64591 25.3705 5.73263 24.9583 5.9061 24.1337L7.2877 17.566C7.33898 17.3221 7.36461 17.2003 7.35244 17.0836C7.34167 16.9805 7.30951 16.8807 7.25806 16.7907C7.19991 16.6892 7.10812 16.6057 6.92454 16.439L1.978 11.9443C1.35699 11.38 1.04648 11.0979 1.00787 10.834C0.974351 10.6048 1.04905 10.373 1.2098 10.2074C1.39486 10.0168 1.81055 9.97255 2.64193 9.88408L9.26396 9.17937C9.50974 9.15322 9.63262 9.14015 9.73888 9.09242C9.8329 9.0502 9.91708 8.98852 9.98597 8.91141C10.0638 8.82427 10.1141 8.71047 10.2148 8.48288L12.9258 2.35062Z" stroke="#808080" stroke-linecap="round" stroke-linejoin="round"/>
</svg>
