<svg width="26" height="25" viewBox="0 0 26 25" fill="none" xmlns="http://www.w3.org/2000/svg">
<path d="M11.9258 1.35062C12.2661 0.580729 12.4364 0.195785 12.6733 0.0772437C12.8792 -0.0257479 13.1209 -0.0257479 13.3267 0.0772437C13.5637 0.195785 13.7339 0.580729 14.0743 1.35062L16.7852 7.48288C16.8859 7.71047 16.9362 7.82427 17.0141 7.91141C17.0829 7.98852 17.1672 8.0502 17.2611 8.09242C17.3674 8.14015 17.4903 8.15322 17.7361 8.17937L24.3582 8.88408C25.1896 8.97255 25.6052 9.01678 25.7903 9.20739C25.951 9.37295 26.0256 9.60479 25.9921 9.83401C25.9536 10.0979 25.6431 10.38 25.0221 10.9443L20.0755 15.439C19.892 15.6057 19.8001 15.6892 19.742 15.7907C19.6906 15.8807 19.6584 15.9805 19.6476 16.0836C19.6354 16.2003 19.661 16.3221 19.7123 16.566L21.094 23.1337C21.2675 23.9583 21.3542 24.3705 21.2316 24.6068C21.125 24.8123 20.9295 24.9555 20.7029 24.9942C20.4421 25.0386 20.08 24.8281 19.3558 24.407L13.5876 21.0525C13.3736 20.928 13.2666 20.8659 13.1528 20.8414C13.0521 20.8199 12.948 20.8199 12.8473 20.8414C12.7335 20.8659 12.6264 20.928 12.4124 21.0525L6.64424 24.407C5.92007 24.8281 5.55798 25.0386 5.29716 24.9942C5.07059 24.9555 4.875 24.8123 4.7685 24.6068C4.64591 24.3705 4.73263 23.9583 4.9061 23.1337L6.2877 16.566C6.33898 16.3221 6.36461 16.2003 6.35244 16.0836C6.34167 15.9805 6.30951 15.8807 6.25806 15.7907C6.19991 15.6892 6.10812 15.6057 5.92454 15.439L0.978001 10.9443C0.35699 10.38 0.0464776 10.0979 0.00787117 9.83401C-0.0256485 9.60479 0.0490505 9.37295 0.209798 9.20739C0.394862 9.01678 0.81055 8.97255 1.64193 8.88408L8.26396 8.17937C8.50974 8.15322 8.63262 8.14015 8.73888 8.09242C8.8329 8.0502 8.91708 7.98852 8.98597 7.91141C9.06382 7.82427 9.11413 7.71047 9.21476 7.48288L11.9258 1.35062Z" fill="#FFCC00"/>
</svg>
