<?xml version="1.0" encoding="UTF-8"?>
<svg version="1.1" xmlns="http://www.w3.org/2000/svg" width="512" height="512">
<path d="M0 0 C0.90870283 -0.00407553 1.81740566 -0.00815105 2.75364494 -0.01235008 C7.5537784 -0.03303592 12.35388467 -0.04741806 17.15405273 -0.05688477 C22.07153249 -0.06798081 26.98856385 -0.10246808 31.90588474 -0.14205647 C35.72805046 -0.16833751 39.55011022 -0.17658618 43.37235832 -0.18016624 C45.18422451 -0.18499353 46.99608722 -0.19649517 48.80786324 -0.21520424 C71.55347492 -0.43571681 85.55009894 6.57046158 101.72387695 22.37329102 C104.59947027 25.20529464 107.45529789 28.0566958 110.30395508 30.91577148 C112.0836413 32.70090547 113.8687273 34.48051837 115.65429688 36.25976562 C116.79068607 37.39681421 117.92676578 38.5341722 119.0625 39.671875 C119.59468643 40.2020372 120.12687286 40.7321994 120.67518616 41.27842712 C124.15859791 44.78433081 125.65110789 46.61898725 125.80859375 51.55078125 C125.78022889 55.07369724 125.5626005 56.13187044 123.62109375 59.23828125 C120.85029726 61.84608971 119.09593729 62.47871027 115.37109375 62.73828125 C104.65178347 62.4079447 94.42102314 47.12905807 87.34667969 39.76660156 C77.84097815 29.89266588 69.89634623 22.58523106 55.55499268 22.14877319 C51.89820299 22.10561345 48.24297842 22.0997514 44.5859375 22.10546875 C43.21375003 22.10479291 41.84156268 22.10382057 40.46937561 22.10256958 C37.59049339 22.10109833 34.71164226 22.10322377 31.83276367 22.10791016 C28.21237016 22.11352737 24.59205139 22.1102768 20.97166061 22.10447598 C7.98923437 22.08674962 -4.98850974 22.09565444 -17.9609375 22.671875 C-18.80294205 22.70904633 -19.64494659 22.74621765 -20.51246643 22.78451538 C-48.69540046 24.23593998 -76.81192424 33.18449109 -99.50390625 50.23828125 C-100.32375 50.84929687 -101.14359375 51.4603125 -101.98828125 52.08984375 C-111.45168701 59.41343483 -120.05391197 67.78828697 -128.50390625 76.23828125 C-62.17390625 76.23828125 4.15609375 76.23828125 72.49609375 76.23828125 C69.85609375 73.59828125 67.21609375 70.95828125 64.49609375 68.23828125 C62.88179452 65.00968278 62.90038718 61.72834472 63.49609375 58.23828125 C65.2321148 55.2131998 67.33189512 52.82038056 70.49609375 51.23828125 C75.05287611 50.8001291 77.99769883 51.05243449 81.78543091 53.69168091 C83.94625191 55.64526663 85.53387942 57.8268498 87.26733398 60.16772461 C93.76064706 68.53883228 100.16993386 76.03717677 111.0289402 77.73327065 C121.26186738 78.82678586 131.59785884 78.36497556 141.85723877 77.91064453 C148.96953689 77.62138954 156.08984014 77.53724821 163.20660973 77.41475487 C165.75541575 77.3676648 168.30372304 77.30780176 170.85224915 77.24763489 C182.51456693 77.0144971 193.25914946 77.89167097 204.49609375 81.23828125 C205.86835208 81.62249333 207.24090861 82.00564202 208.61376953 82.38769531 C227.03547008 87.74462807 251.41628335 100.32348298 261.7421875 117.28515625 C263.42901597 121.65517819 263.05888332 125.74033005 261.45703125 130.00390625 C258.81794352 134.35682386 255.45824196 137.59653339 251.80859375 141.11328125 C251.10669922 141.80164063 250.40480469 142.49 249.68164062 143.19921875 C247.9597652 144.88595386 246.23126801 146.56524822 244.49609375 148.23828125 C246.07527101 151.59228605 247.7861218 153.68771942 250.49609375 156.23828125 C254.0092807 159.54481014 256.1986532 161.94868071 256.83203125 166.82421875 C256.91606356 172.82412584 256.69092633 176.57735617 252.49609375 181.23828125 C248.66416696 184.71096491 245.16267189 185.36671236 240.09472656 185.35180664 C238.80384125 185.35169334 238.80384125 185.35169334 237.48687744 185.35157776 C236.56695007 185.34641647 235.64702271 185.34125519 234.69921875 185.3359375 C233.27606354 185.33381508 233.27606354 185.33381508 231.82415771 185.33164978 C228.79810413 185.32605867 225.77212492 185.31350777 222.74609375 185.30078125 C220.6927094 185.2957651 218.63932389 185.2912024 216.5859375 185.28710938 C211.55596099 185.27609214 206.52603997 185.25883358 201.49609375 185.23828125 C201.36635666 185.85311874 201.23661957 186.46795624 201.10295105 187.10142517 C200.92871109 187.90963211 200.75447113 188.71783905 200.57495117 189.55053711 C200.40396408 190.3509996 200.23297699 191.1514621 200.05680847 191.97618103 C197.26033098 203.25805417 188.64904043 212.36200232 179.25 218.6328125 C166.76785872 225.90963529 153.20231589 228.215181 138.984375 225.58984375 C122.5520098 220.9515163 112.55623484 212.35577413 104.1953125 197.93359375 C102.49609375 194.23828125 102.49609375 194.23828125 100.49609375 185.23828125 C66.17609375 185.23828125 31.85609375 185.23828125 -3.50390625 185.23828125 C-4.16390625 188.20828125 -4.82390625 191.17828125 -5.50390625 194.23828125 C-11.18317209 208.2223096 -21.18406396 216.98335531 -34.50390625 223.23828125 C-46.5331826 228.25611141 -61.39048783 227.71974064 -73.50390625 223.23828125 C-87.4343907 217.05112126 -96.66296524 207.37155556 -102.77734375 193.44140625 C-103.66875521 190.73841667 -104.0941066 188.05063182 -104.50390625 185.23828125 C-105.5196875 185.27308594 -106.53546875 185.30789063 -107.58203125 185.34375 C-123.54282394 185.73132752 -135.35418156 182.06982671 -148.75390625 173.05078125 C-166.21805612 155.18971888 -167.87146776 136.05709076 -167.81958008 112.34057617 C-167.81638668 109.28203732 -167.84007926 106.22443792 -167.86523438 103.16601562 C-167.86750486 101.20182412 -167.86821203 99.23763005 -167.8671875 97.2734375 C-167.87639725 96.36916519 -167.88560699 95.46489288 -167.89509583 94.53321838 C-167.83227243 85.90752091 -165.30262838 80.59014366 -159.2623291 74.49221802 C-158.56861206 73.81287201 -157.87489502 73.133526 -157.16015625 72.43359375 C-156.43582397 71.71017792 -155.7114917 70.98676208 -154.96520996 70.24142456 C-153.43335742 68.71559598 -151.89666499 67.19461285 -150.35546875 65.67822266 C-148.02888894 63.38787488 -145.71843676 61.08221123 -143.41015625 58.7734375 C-135.74933157 51.14949163 -128.05870045 43.85903026 -119.50390625 37.23828125 C-118.40612232 36.33664927 -117.31062291 35.43221875 -116.21875 34.5234375 C-82.72093096 7.71575953 -41.85256102 0.16073453 0 0 Z M-145.50390625 98.23828125 C-145.60371332 103.44859398 -145.67581186 108.6583351 -145.72363281 113.86938477 C-145.74359387 115.63738718 -145.77077277 117.40532491 -145.80566406 119.1730957 C-146.0616517 132.48821741 -145.5043358 143.55507679 -136.55078125 154.23046875 C-128.78480036 161.8482439 -120.03634286 164.3090872 -109.44140625 164.36328125 C-107.79534909 164.33166973 -106.14933589 164.2936415 -104.50390625 164.23828125 C-104.22417969 163.42746094 -103.94445312 162.61664063 -103.65625 161.78125 C-97.59909736 145.05104384 -89.89094091 135.57707005 -74.06640625 127.71875 C-61.64076275 122.55502315 -47.11831466 122.35248224 -34.4609375 126.921875 C-20.46410006 133.1529638 -11.22348922 143.04246385 -5.50390625 157.23828125 C-4.84390625 159.54828125 -4.18390625 161.85828125 -3.50390625 164.23828125 C30.81609375 164.23828125 65.13609375 164.23828125 100.49609375 164.23828125 C102.14609375 159.61828125 103.79609375 154.99828125 105.49609375 150.23828125 C112.42655226 139.44494422 119.62730835 132.22317112 131.49609375 127.23828125 C132.23085938 126.91730469 132.965625 126.59632813 133.72265625 126.265625 C145.91105489 121.76303787 160.78599171 123.12497524 172.49609375 128.23828125 C176.02108949 130.0057439 179.27100333 131.97215577 182.49609375 134.23828125 C183.44935547 134.89763672 183.44935547 134.89763672 184.421875 135.5703125 C193.66146474 142.67926514 197.72101384 153.5994197 201.49609375 164.23828125 C209.74609375 164.23828125 217.99609375 164.23828125 226.49609375 164.23828125 C224.51609375 161.92828125 222.53609375 159.61828125 220.49609375 157.23828125 C218.18583057 153.26751641 217.39960977 151.19183033 217.86328125 146.609375 C219.5107862 140.60567315 224.22081615 136.87575514 228.62109375 132.73828125 C229.89533203 131.50464844 229.89533203 131.50464844 231.1953125 130.24609375 C233.2825966 128.22916754 235.38256821 126.22763159 237.49609375 124.23828125 C227.12832311 113.56075297 214.1105815 106.67004206 199.93359375 102.42578125 C199.28640381 102.23097168 198.63921387 102.03616211 197.97241211 101.83544922 C186.99527653 98.76331289 175.98417783 97.94369035 164.63249207 97.99777222 C163.28483621 97.99689772 161.93718069 97.99514227 160.58952695 97.99259388 C156.92474393 97.98816428 153.26007989 97.99606283 149.595312 98.00615001 C145.62890523 98.01484622 141.66250433 98.01186001 137.6960907 98.01034546 C130.83675251 98.00930048 123.97745258 98.01553639 117.11812401 98.02682114 C107.20088472 98.04312597 97.2836638 98.04828923 87.36641256 98.05079712 C71.27348007 98.05516643 55.18056793 98.06845473 39.08764648 98.08740234 C23.46167095 98.10578097 7.83570097 98.11992776 -7.7902832 98.12841797 C-8.75465436 98.12894342 -9.71902553 98.12946886 -10.71262006 98.13001023 C-15.55094086 98.13262045 -20.3892617 98.13514783 -25.22758257 98.13763404 C-65.31970472 98.15834272 -105.41180413 98.19354737 -145.50390625 98.23828125 Z M-78.81640625 156.92578125 C-83.47988782 163.61520154 -85.40048345 171.55248655 -84.203125 179.625 C-81.96321054 187.99652388 -77.99975286 195.61481848 -70.50390625 200.23828125 C-63.33434368 204.37148056 -55.59257643 206.33496401 -47.37890625 204.55078125 C-46.07603136 204.14788419 -44.78356994 203.70973629 -43.50390625 203.23828125 C-42.84648437 203.00367188 -42.1890625 202.7690625 -41.51171875 202.52734375 C-34.39745267 199.51000911 -28.73809578 193.52450512 -25.56640625 186.48828125 C-22.66692499 177.61927974 -22.90992133 169.87740726 -26.50390625 161.23828125 C-30.85864184 153.57340396 -37.17435066 148.10120531 -45.56640625 145.36328125 C-58.78401228 141.98343678 -70.23379264 146.63507992 -78.81640625 156.92578125 Z M127.7734375 155.0546875 C122.94094959 160.93203766 120.92504893 167.23469953 120.12109375 174.73828125 C121.23608262 185.14484403 125.12522137 192.82996658 133.18359375 199.55078125 C140.03193188 204.32505126 147.85872343 206.03420092 156.0859375 204.80859375 C164.45344519 202.82860003 171.54159947 198.85342807 176.2265625 191.53515625 C180.7818722 183.09539006 182.57748916 176.10096803 180.49609375 166.67578125 C177.79579901 158.06403046 172.38423061 152.06488126 164.7578125 147.390625 C151.60176657 140.68763096 137.53576374 144.7610782 127.7734375 155.0546875 Z " fill="#000000" transform="translate(207.50390625,142.76171875)"/>
<path d="M0 0 C4.86108919 2.29796944 7.70203056 5.13891081 10 10 C10.77379561 15.29813119 10.67768515 19.56643525 8.375 24.4375 C5.11430555 27.95561769 2.52137081 30.63452443 -2.3984375 31.34765625 C-7.63949638 31.52865378 -11.5807013 31.05142053 -16 28 C-20.58489498 23.04335678 -21.36331663 19.06650268 -21.27734375 12.50390625 C-20.72346805 7.50342277 -17.98490404 4.91283789 -14.4375 1.625 C-9.56643525 -0.67768515 -5.29813119 -0.77379561 0 0 Z " fill="#000000" transform="translate(159,302)"/>
<path d="M0 0 C4.004793 2.0023965 6.6587028 4.17998877 9 8 C10.7354912 13.2064736 10.66344383 18.14934089 8.8125 23.3125 C6.16047205 27.2448173 3.50305441 29.49898186 -1 31 C-5.9388636 31.51853818 -9.85354834 31.55199525 -14.375 29.375 C-18.07694899 26.02561758 -20.63691157 23.48604424 -21.3828125 18.37890625 C-21.56800392 13.82937048 -21.33813423 10.71528396 -19.375 6.5625 C-13.50006765 0.2237572 -8.4777159 -1.26156487 0 0 Z " fill="#000000" transform="translate(364,302)"/>
</svg>
