<?xml version="1.0" encoding="UTF-8"?>
<svg version="1.1" xmlns="http://www.w3.org/2000/svg" width="512" height="512">
<path d="M0 0 C0.83308243 -0.00367669 1.66616485 -0.00735338 2.5244922 -0.01114148 C5.30852502 -0.0221307 8.09252045 -0.02601406 10.87657166 -0.02983093 C12.87604388 -0.03609922 14.87551494 -0.04274635 16.87498474 -0.04974365 C23.43531998 -0.07074448 29.99565534 -0.08114293 36.55601501 -0.09111023 C38.81858774 -0.09515939 41.08116035 -0.09927636 43.34373283 -0.10346031 C53.97600392 -0.12250392 64.60826811 -0.13673621 75.24055296 -0.14507228 C87.4940442 -0.15483928 99.74735455 -0.18114841 112.00078207 -0.22157317 C121.48468108 -0.25178221 130.96852837 -0.26654573 140.45247453 -0.26985329 C146.11076325 -0.27219844 151.76885852 -0.28108923 157.42709541 -0.30631447 C162.75496521 -0.32968374 168.08251541 -0.33379286 173.41042328 -0.32355309 C175.35778558 -0.32305975 177.3051641 -0.32931988 179.25247765 -0.34310913 C192.68090639 -0.43282052 204.75389267 0.28397419 216.27085876 8.02217102 C216.83716003 8.4009137 217.4034613 8.77965637 217.98692322 9.1698761 C224.51709563 13.62725673 230.68611905 18.58232638 236.88804626 23.47920227 C241.48456647 27.09539929 246.17367248 30.5724566 250.89585876 34.02217102 C257.68520564 38.98740987 264.40477936 44.03391248 271.08335876 49.14717102 C278.07992362 54.5012 285.11404576 59.79822647 292.20835876 65.02217102 C293.00822205 65.61127258 293.80808533 66.20037415 294.63218689 66.80732727 C300.24841134 70.93013545 304.36819149 73.49262791 311.36851501 74.50410461 C312.16083023 74.62476791 312.95314545 74.74543121 313.76947021 74.86975098 C315.49101926 75.13106691 317.21308675 75.38898464 318.93559265 75.64391708 C321.67045882 76.04925452 324.40364056 76.46456583 327.13658142 76.88267517 C334.9078913 78.06965508 342.68199029 79.23789506 350.45689392 80.40107727 C355.21455121 81.1135676 359.97041439 81.83719486 364.72541809 82.567173 C366.52986794 82.84179835 368.33498073 83.11210675 370.14076233 83.37783432 C384.62364745 85.50934952 398.17626363 87.55782813 408.33335876 99.14326477 C418.33051681 112.76439261 419.05656605 131.10687591 419.22862244 147.35151672 C419.25681224 149.2591352 419.30471588 151.16656275 419.37217712 153.07319641 C419.9989742 170.91009414 419.9989742 170.91009414 415.29429626 176.92060852 C408.04343005 182.54792211 398.18355788 181.08042988 389.52085876 180.70967102 C387.68306637 180.66446745 385.84516698 180.62341318 384.00718689 180.58662415 C379.5299109 180.48803298 375.05782448 180.33309065 370.58335876 180.14717102 C370.54235046 180.79726135 370.50134216 181.44735168 370.45909119 182.11714172 C369.63966228 192.54247285 365.41980962 202.01354087 357.58335876 209.14717102 C346.1783338 218.75355406 334.21771972 221.39145047 319.63804626 220.37471008 C311.24097005 219.44480573 304.13437606 215.26593168 297.58335876 210.14717102 C296.96718689 209.66892883 296.35101501 209.19068665 295.71617126 208.69795227 C287.25777917 201.2357708 283.79290391 191.03307731 282.58335876 180.14717102 C195.46335876 180.14717102 108.34335876 180.14717102 18.58335876 180.14717102 C18.58335876 183.11717102 18.58335876 186.08717102 18.58335876 189.14717102 C15.97170113 200.82281693 9.10044575 210.11680676 -0.41664124 217.14717102 C-11.29741067 223.88777347 -23.17559862 225.93541449 -35.78773499 223.49482727 C-47.33790521 220.32499257 -56.46072709 213.93182358 -63.41664124 204.14717102 C-67.03497467 197.51355972 -69.57908099 191.4925923 -69.47914124 183.89717102 C-69.4701178 183.00513977 -69.46109436 182.11310852 -69.45179749 181.19404602 C-69.44019592 180.51857727 -69.42859436 179.84310852 -69.41664124 179.14717102 C-71.21101624 178.80685852 -71.21101624 178.80685852 -73.04164124 178.45967102 C-89.79804492 174.76576733 -89.79804492 174.76576733 -93.41664124 171.14717102 C-93.5332599 168.22259979 -93.58467101 165.32134161 -93.59364319 162.39570618 C-93.60021439 161.4768866 -93.60678558 160.55806702 -93.61355591 159.61140442 C-93.63335544 156.55301336 -93.6449713 153.49467175 -93.65492249 150.43623352 C-93.65899801 149.39175426 -93.66307354 148.34727501 -93.66727257 147.27114487 C-93.6881698 141.73421677 -93.70245101 136.19731367 -93.71180725 130.66035461 C-93.72282987 124.95650565 -93.75717121 119.25305134 -93.79697895 113.5493412 C-93.82322109 109.15333873 -93.83150624 104.75742873 -93.83508873 100.36135483 C-93.83994152 98.26035802 -93.85151792 96.15936498 -93.87012672 94.05844498 C-94.05883461 71.32510101 -87.4103755 58.1371517 -71.97914124 41.85420227 C-69.86084498 39.61642894 -67.8078913 37.35112653 -65.79164124 35.02217102 C-65.2463678 34.39955383 -64.70109436 33.77693665 -64.13929749 33.13545227 C-62.88358904 31.68611985 -61.64344734 30.22325707 -60.41273499 28.75263977 C-45.25214745 11.09692871 -23.41368064 -0.00559653 0 0 Z M21.58335876 8.14717102 C20.78671814 10.21096008 19.99007751 12.27474915 19.16929626 14.40107727 C18.37507539 16.45674225 17.58054889 18.51228885 16.78599548 20.56782532 C16.24466236 21.96874434 15.70363424 23.36978127 15.16294861 24.77095032 C14.37425241 26.8146575 13.58458324 28.85798472 12.79429626 30.90107727 C12.40065887 31.91906906 12.40065887 31.91906906 11.99906921 32.95762634 C10.64789274 36.44098797 9.27945216 39.91629821 7.88121033 43.38105774 C7.46991379 44.40053749 7.46991379 44.40053749 7.05030823 45.44061279 C6.29272494 47.31257118 5.53118457 49.18292673 4.76939392 51.05317688 C1.37617919 59.90501103 1.63573963 68.120678 5.31773376 76.85810852 C6.89568905 79.71206469 8.24785457 81.83366864 10.58335876 84.14717102 C13.40380531 84.59496795 15.60613116 84.73557645 18.41148376 84.63545227 C19.1604895 84.62837753 19.90949524 84.6213028 20.68119812 84.61401367 C23.06628113 84.5860924 25.44898933 84.52336637 27.83335876 84.45967102 C29.45311645 84.43458485 31.07291105 84.41177222 32.69273376 84.39131165 C36.65718616 84.33627427 40.61987029 84.25002424 44.58335876 84.14717102 C46.74566804 66.81594961 48.60288726 49.4699217 50.27085876 32.08467102 C50.49781186 29.74154682 50.72502443 27.39844774 50.95249939 25.05537415 C51.49956253 19.4196291 52.04137099 13.78341542 52.58335876 8.14717102 C42.35335876 8.14717102 32.12335876 8.14717102 21.58335876 8.14717102 Z M61.58335876 8.14717102 C60.17432224 10.96524407 60.13956373 13.59886603 59.82725525 16.73652649 C59.75883423 17.41314331 59.69041321 18.08976013 59.61991882 18.78688049 C59.39422179 21.02900421 59.17424379 23.27164877 58.95445251 25.51435852 C58.79922879 27.07136365 58.64371237 28.62833963 58.48791504 30.18528748 C58.1618897 33.45180361 57.83853101 36.71856906 57.51719666 39.98554993 C57.10540349 44.17133502 56.68841949 48.35658192 56.26960659 52.54166985 C55.94802706 55.75855375 55.62851394 58.97564011 55.30969429 62.19279861 C55.15666617 63.73580249 55.00315932 65.27875897 54.84916496 66.82166672 C54.63414064 68.9805956 54.42172865 71.1397656 54.21006775 73.29902649 C54.02806068 75.14196793 54.02806068 75.14196793 53.84237671 77.0221405 C53.52829097 80.28893503 53.52829097 80.28893503 53.58335876 84.14717102 C80.31335876 84.14717102 107.04335876 84.14717102 134.58335876 84.14717102 C134.58335876 59.06717102 134.58335876 33.98717102 134.58335876 8.14717102 C110.49335876 8.14717102 86.40335876 8.14717102 61.58335876 8.14717102 Z M142.58335876 8.14717102 C142.58335876 33.22717102 142.58335876 58.30717102 142.58335876 84.14717102 C165.80693076 84.32222258 165.80693076 84.32222258 189.03062439 84.44013977 C198.51300214 84.47562382 207.99505802 84.51714184 217.47715759 84.59980774 C224.38559824 84.660007 231.29377563 84.69841318 238.20247132 84.71170199 C241.85360958 84.71945817 245.50399538 84.73740953 249.15489006 84.78155136 C264.54918513 84.96075526 278.50658616 85.04210625 292.58335876 78.14717102 C289.53108408 75.0629248 286.52760634 72.19669547 283.06382751 69.58076477 C282.21497986 68.93687805 281.3661322 68.29299133 280.49156189 67.6295929 C279.59372986 66.95476868 278.69589783 66.27994446 277.77085876 65.58467102 C276.8330658 64.87504211 275.89527283 64.16541321 274.92906189 63.4342804 C268.85887823 58.84543671 262.77257584 54.27781673 256.67710876 49.72261047 C252.0814326 46.28448751 247.51448252 42.81012807 242.95518494 39.32392883 C235.08858072 33.31111011 227.20773007 27.31701939 219.27085876 21.39717102 C218.51313171 20.8249884 217.75540466 20.25280579 216.97471619 19.6632843 C204.16816937 10.16712786 191.75365873 7.96080998 176.07945251 8.04951477 C174.79560669 8.05102539 174.79560669 8.05102539 173.48582458 8.05256653 C170.33082208 8.05774394 167.17583888 8.07170456 164.02085876 8.08467102 C156.94648376 8.10529602 149.87210876 8.12592102 142.58335876 8.14717102 Z M-3.79164124 8.95967102 C-4.89656921 9.0889801 -4.89656921 9.0889801 -6.02381897 9.22090149 C-11.6946657 9.93901376 -17.04157906 11.16618987 -22.41664124 13.14717102 C-22.45531311 14.87000305 -22.45531311 14.87000305 -22.49476624 16.62763977 C-23.06517499 34.50753716 -28.6921259 47.74185731 -37.41664124 63.14717102 C-37.88086487 63.97104309 -38.3450885 64.79491516 -38.82337952 65.64375305 C-51.34979172 87.64632884 -51.34979172 87.64632884 -63.41664124 91.14717102 C-67.22614689 91.6278758 -71.01773293 91.74730974 -74.85414124 91.83467102 C-75.87185608 91.86883118 -76.88957092 91.90299133 -77.93812561 91.93818665 C-80.43059168 92.02009868 -82.92359656 92.08532475 -85.41664124 92.14717102 C-85.41664124 97.42717102 -85.41664124 102.70717102 -85.41664124 108.14717102 C-80.46664124 108.47717102 -75.51664124 108.80717102 -70.41664124 109.14717102 C-70.41664124 116.40717102 -70.41664124 123.66717102 -70.41664124 131.14717102 C-75.36664124 131.47717102 -80.31664124 131.80717102 -85.41664124 132.14717102 C-85.41664124 142.70717102 -85.41664124 153.26717102 -85.41664124 164.14717102 C-77.55068406 167.55181435 -77.55068406 167.55181435 -69.41664124 170.14717102 C-69.19750061 169.32474915 -68.97835999 168.50232727 -68.75257874 167.65498352 C-65.39444998 155.83327822 -60.5004349 144.91594848 -49.54945374 138.45576477 C-37.2632367 132.09818363 -24.41444413 129.63823167 -10.97914124 133.77217102 C0.56475729 138.23018061 9.39194321 145.51920514 14.58726501 156.79560852 C16.83353958 162.09857828 17.75203355 166.32789452 18.58335876 172.14717102 C105.70335876 172.14717102 192.82335876 172.14717102 282.58335876 172.14717102 C284.06835876 166.20717102 284.06835876 166.20717102 285.58335876 160.14717102 C290.59499846 147.66981438 298.6673941 141.12327199 310.41148376 135.49482727 C320.67084528 131.1358621 334.56008158 131.69179391 344.84117126 135.76435852 C357.16008684 141.97646124 364.39344073 150.54340908 368.85679626 163.50654602 C369.64440772 166.36904789 370.11358945 169.21754624 370.58335876 172.14717102 C375.31547919 172.29607589 380.04622156 172.40464151 384.78013611 172.47676086 C386.3884508 172.50683793 387.99660275 172.54771225 389.60435486 172.59980774 C391.92328588 172.67303714 394.24004055 172.70671386 396.55992126 172.73310852 C397.62903244 172.77956009 397.62903244 172.77956009 398.71974182 172.82695007 C402.71909815 172.82961446 405.13168701 172.13015789 408.04820251 169.50263977 C410.77893775 166.37463942 411.29399042 164.07177015 411.16929626 159.87373352 C411.14029236 158.14316711 411.14029236 158.14316711 411.11070251 156.37763977 C411.06042908 155.18783508 411.01015564 153.9980304 410.95835876 152.77217102 C410.93128845 151.55916321 410.90421814 150.3461554 410.87632751 149.09638977 C410.80581802 146.11148791 410.70730952 143.13025264 410.58335876 140.14717102 C409.64951355 140.12211487 408.71566833 140.09705872 407.75352478 140.07124329 C404.30010688 139.97630174 400.84686917 139.87705844 397.3936615 139.77485657 C395.89696607 139.73145289 394.40021938 139.68978189 392.90342712 139.64985657 C390.75621564 139.59228486 388.60926355 139.52855386 386.46226501 139.46357727 C385.16877136 139.42691956 383.87527771 139.39026184 382.54258728 139.35249329 C379.58335876 139.14717102 379.58335876 139.14717102 378.58335876 138.14717102 C377.97271492 132.16286136 379.28821414 128.04190041 382.58335876 123.14717102 C387.73313037 118.25488799 391.78449017 116.91377483 398.83335876 116.52217102 C400.72828064 116.41002258 400.72828064 116.41002258 402.66148376 116.29560852 C403.62570251 116.24662415 404.58992126 116.19763977 405.58335876 116.14717102 C404.30657453 108.78396871 400.28364662 104.6103158 394.87632751 99.76045227 C389.63441578 96.07236105 384.09059087 94.63186406 377.83140564 93.68916321 C376.72020103 93.51053238 376.72020103 93.51053238 375.58654785 93.32829285 C373.15977776 92.94083552 370.73115618 92.56693829 368.30210876 92.19404602 C366.60244247 91.9274131 364.90285869 91.66025366 363.20335388 91.39259338 C359.65044161 90.83526802 356.09655842 90.28474749 352.54185486 89.7389679 C347.99714158 89.04056415 343.45540151 88.32459604 338.91425323 87.60342026 C335.40828841 87.04875499 331.90086821 86.50378652 328.39294434 85.96166229 C326.71801224 85.70156802 325.04355159 85.43841792 323.36959839 85.17209625 C321.02623974 84.80069715 318.68121567 84.44251834 316.33531189 84.08760071 C315.65146927 83.9765097 314.96762665 83.8654187 314.26306152 83.7509613 C308.36320219 82.8828396 303.01306413 83.24526187 297.56504822 85.74311829 C281.2197038 92.57587554 264.84503017 92.16544918 247.47047424 92.09178925 C242.82051914 92.07952845 238.17075626 92.10739209 233.52085876 92.12910461 C224.66580146 92.16378323 215.81102893 92.16750352 206.95591736 92.15742493 C194.70877426 92.14393989 182.46182982 92.15616668 170.21470642 92.17988586 C166.54928594 92.18689896 162.88386542 92.19388571 159.21844482 92.20083618 C157.82944476 92.20347319 157.82944476 92.20347319 156.41238409 92.20616347 C138.3027245 92.23989325 120.19304219 92.25722998 102.08335876 92.27217102 C100.65999561 92.27341233 100.65999561 92.27341233 99.20787764 92.27467871 C87.17764106 92.28505922 75.14743273 92.28878424 63.11719322 92.28193092 C59.69758353 92.28014441 56.27798657 92.28062554 52.85837746 92.28320885 C22.74712586 92.30288814 22.74712586 92.30288814 11.61656189 91.88105774 C10.30981506 91.83439972 9.00306824 91.7877417 7.65672302 91.7396698 C4.07975176 91.0500831 2.89962297 90.1287104 0.70835876 87.27217102 C-0.44789124 84.78779602 -0.44789124 84.78779602 -1.41664124 82.14717102 C-2.01992249 80.90193665 -2.01992249 80.90193665 -2.63539124 79.63154602 C-7.02116277 69.73392649 -6.78288095 59.30920941 -3.30726624 49.21748352 C-2.97841179 48.26191055 -2.97841179 48.26191055 -2.64291382 47.28703308 C0.08407236 39.50349057 3.23980116 31.8890349 6.39585876 24.27217102 C7.29110857 22.10132865 8.1849381 19.92991729 9.07693481 17.75773621 C9.62566583 16.42248308 10.17645869 15.08807497 10.72955322 13.75462341 C12.03213717 11.03923692 12.03213717 11.03923692 12.58335876 8.14717102 C7.05281015 8.06638773 1.69931937 8.30716763 -3.79164124 8.95967102 Z M-54.41664124 38.14717102 C-61.16173214 45.13879303 -67.34833934 52.56743334 -73.41664124 60.14717102 C-74.06890686 60.93092102 -74.72117249 61.71467102 -75.39320374 62.52217102 C-80.12239641 68.31794758 -84.1311377 74.07874562 -84.66664124 81.70967102 C-84.58414124 82.51404602 -84.50164124 83.31842102 -84.41664124 84.14717102 C-79.18161167 84.32462965 -74.06431866 84.14941053 -68.85414124 83.58467102 C-67.30533264 83.42804993 -67.30533264 83.42804993 -65.72523499 83.26826477 C-55.94552456 79.95447859 -51.51163407 71.02322648 -46.79164124 62.45967102 C-46.16257874 61.3517218 -45.53351624 60.24377258 -44.88539124 59.10224915 C-34.4055696 41.20879419 -34.4055696 41.20879419 -31.41664124 21.14717102 C-39.59655227 21.14717102 -48.84110505 32.61432369 -54.41664124 38.14717102 Z M-85.41664124 116.14717102 C-85.41664124 118.78717102 -85.41664124 121.42717102 -85.41664124 124.14717102 C-82.77664124 124.14717102 -80.13664124 124.14717102 -77.41664124 124.14717102 C-77.41664124 121.50717102 -77.41664124 118.86717102 -77.41664124 116.14717102 C-80.05664124 116.14717102 -82.69664124 116.14717102 -85.41664124 116.14717102 Z M389.70835876 128.70967102 C387.47383623 130.73384425 387.47383623 130.73384425 387.58335876 132.14717102 C394.51335876 132.14717102 401.44335876 132.14717102 408.58335876 132.14717102 C408.25335876 129.50717102 407.92335876 126.86717102 407.58335876 124.14717102 C400.57424988 123.86680667 395.20311476 123.81217112 389.70835876 128.70967102 Z M-51.41664124 151.14717102 C-53.41008561 153.71246486 -53.41008561 153.71246486 -55.10414124 156.52217102 C-55.68550842 157.4374054 -56.26687561 158.35263977 -56.86585999 159.29560852 C-61.49021984 167.79883949 -61.70996162 177.67188907 -59.83460999 187.06123352 C-56.69506208 196.0928097 -49.56353156 203.39345823 -41.43617249 208.20967102 C-32.61999661 212.30228651 -21.30434602 212.92956364 -12.04164124 209.70967102 C-2.51631699 205.16385861 4.79660081 197.11406591 8.68492126 187.39326477 C11.01444282 178.9766021 10.82141781 168.37855446 7.04039001 160.45576477 C1.25257654 151.28526139 -6.70384948 143.77071186 -17.41664124 141.14717102 C-30.01036472 138.61381078 -41.88425348 142.65356911 -51.41664124 151.14717102 Z M301.27085876 150.83467102 C293.27824326 159.3450268 291.08542978 168.75460153 291.31773376 180.06513977 C291.80073261 190.3951591 297.17451471 197.27537662 304.58335876 204.14717102 C313.79947809 211.28924535 323.32150237 211.99900102 334.58335876 211.14717102 C343.6533948 209.33559546 350.68570971 203.17669006 356.25132751 195.99482727 C362.33873088 186.69413181 363.15155973 175.99870069 361.00132751 165.23310852 C357.64127726 155.56721052 349.69902627 147.58813724 340.58335876 143.14717102 C326.92379005 137.33458859 312.01132717 140.85993957 301.27085876 150.83467102 Z " fill="#000000" transform="translate(93.41664123535156,143.8528289794922)"/>
<path d="M0 0 C4.69891914 2.87673103 8.78446436 6.41787506 10.2421875 11.88671875 C11.17005342 18.7020171 11.39405436 24.98514065 7.7421875 31.01171875 C3.71245108 36.04420354 -0.25736123 38.43854776 -6.65625 39.2578125 C-13.11059947 39.52606632 -18.64040536 39.07162059 -23.7578125 34.88671875 C-28.43428724 30.23031472 -30.15365067 25.90880197 -30.3828125 19.32421875 C-30.00875154 12.49561661 -28.78578222 7.98123726 -23.98046875 3.0703125 C-17.09896483 -2.45283124 -8.16339443 -3.29542126 0 0 Z M-19.7578125 12.88671875 C-21.37211173 16.11531722 -21.35351907 19.39665528 -20.7578125 22.88671875 C-19.02179145 25.9118002 -16.92201113 28.30461944 -13.7578125 29.88671875 C-8.63410852 30.4940072 -8.63410852 30.4940072 -3.93359375 28.83984375 C-0.13028506 25.7087906 1.12882117 24.02038207 1.6171875 19.13671875 C1.59277525 15.78613807 0.99820104 14.03777343 -1.1328125 11.44921875 C-4.6626711 8.0034044 -6.6861777 7.49116039 -11.65234375 7.52734375 C-15.37374703 8.16253689 -17.16094099 10.22650891 -19.7578125 12.88671875 Z " fill="#000000" transform="translate(429.7578125,301.11328125)"/>
<path d="M0 0 C4.69891914 2.87673103 8.78446436 6.41787506 10.2421875 11.88671875 C11.17005342 18.7020171 11.39405436 24.98514065 7.7421875 31.01171875 C3.71245108 36.04420354 -0.25736123 38.43854776 -6.65625 39.2578125 C-13.11059947 39.52606632 -18.64040536 39.07162059 -23.7578125 34.88671875 C-28.43428724 30.23031472 -30.15365067 25.90880197 -30.3828125 19.32421875 C-30.00875154 12.49561661 -28.78578222 7.98123726 -23.98046875 3.0703125 C-17.09896483 -2.45283124 -8.16339443 -3.29542126 0 0 Z M-19.7578125 12.88671875 C-21.37211173 16.11531722 -21.35351907 19.39665528 -20.7578125 22.88671875 C-19.02179145 25.9118002 -16.92201113 28.30461944 -13.7578125 29.88671875 C-8.63410852 30.4940072 -8.63410852 30.4940072 -3.93359375 28.83984375 C-0.13028506 25.7087906 1.12882117 24.02038207 1.6171875 19.13671875 C1.59277525 15.78613807 0.99820104 14.03777343 -1.1328125 11.44921875 C-4.6626711 8.0034044 -6.6861777 7.49116039 -11.65234375 7.52734375 C-15.37374703 8.16253689 -17.16094099 10.22650891 -19.7578125 12.88671875 Z " fill="#000000" transform="translate(77.7578125,301.11328125)"/>
<path d="M0 0 C0.98484375 -0.00128906 1.9696875 -0.00257813 2.984375 -0.00390625 C4.02078125 -0.00003906 5.0571875 0.00382812 6.125 0.0078125 C7.67960937 0.00201172 7.67960937 0.00201172 9.265625 -0.00390625 C10.25046875 -0.00261719 11.2353125 -0.00132812 12.25 0 C13.16007812 0.00112793 14.07015625 0.00225586 15.0078125 0.00341797 C17.125 0.1328125 17.125 0.1328125 18.125 1.1328125 C18.25 4.1328125 18.25 4.1328125 18.125 7.1328125 C16.47105883 8.78675367 14.52184587 8.26280933 12.25 8.265625 C11.26515625 8.26691406 10.2803125 8.26820313 9.265625 8.26953125 C8.22921875 8.26566406 7.1928125 8.26179688 6.125 8.2578125 C4.57039062 8.26361328 4.57039062 8.26361328 2.984375 8.26953125 C1.99953125 8.26824219 1.0146875 8.26695312 0 8.265625 C-0.91007813 8.26449707 -1.82015625 8.26336914 -2.7578125 8.26220703 C-4.875 8.1328125 -4.875 8.1328125 -5.875 7.1328125 C-6 4.1328125 -6 4.1328125 -5.875 1.1328125 C-4.22105883 -0.52112867 -2.27184587 0.00281567 0 0 Z " fill="#000000" transform="translate(249.875,259.8671875)"/>
</svg>
