<?xml version="1.0" encoding="UTF-8"?>
<svg version="1.1" xmlns="http://www.w3.org/2000/svg" width="512" height="512">
<path d="M0 0 C2.19725212 -0.00435223 4.39450273 -0.00953707 6.5917511 -0.01548767 C12.5360151 -0.02883364 18.48021535 -0.02946127 24.42449141 -0.02692437 C29.39696498 -0.02585171 34.36942582 -0.03074554 39.34189665 -0.03552979 C51.7476704 -0.04724217 64.15341282 -0.04640861 76.55918844 -0.03997298 C87.30680973 -0.03480542 98.05434034 -0.04605904 108.8019437 -0.0650712 C119.86631547 -0.08449206 130.93064234 -0.09240744 141.995031 -0.08894795 C148.19534195 -0.08713939 154.39556983 -0.0897287 160.59586716 -0.10366249 C166.42854769 -0.11628074 172.2610473 -0.11425891 178.0937252 -0.1012516 C180.22652562 -0.09889502 182.35933894 -0.10158735 184.49212456 -0.10987473 C213.17121014 -0.21322369 213.17121014 -0.21322369 225.30322266 8.2746582 C225.99416016 8.74774414 226.68509766 9.22083008 227.39697266 9.70825195 C235.22075836 15.84538821 240.22275816 24.53211231 245.62255859 32.7355957 C248.2594849 36.71933098 250.97085004 40.65112524 253.67822266 44.5871582 C257.19575101 49.72294341 260.70585891 54.86374582 264.20947266 60.0090332 C264.87027832 60.97929443 265.53108398 61.94955566 266.21191406 62.94921875 C267.4804038 64.81226384 268.74834811 66.67568048 270.015625 68.53955078 C270.89661865 69.83348755 270.89661865 69.83348755 271.79541016 71.15356445 C272.55893799 72.27613647 272.55893799 72.27613647 273.33789062 73.42138672 C273.9864502 74.36296631 274.63500977 75.3045459 275.30322266 76.2746582 C275.76192245 77.09240723 276.22062225 77.91015625 276.69322205 78.75268555 C279.7931679 84.00403943 279.7931679 84.00403943 284.72302246 87.31513977 C287.61129437 87.84641447 290.38890369 88.07372913 293.32275391 88.2043457 C294.39850174 88.29023956 295.47424957 88.37613342 296.58259583 88.46463013 C300.09196578 88.73556171 303.60209899 88.94193402 307.11572266 89.1496582 C309.54562609 89.32950874 311.97515775 89.51445085 314.40429688 89.7043457 C319.32813201 90.08402495 324.25269691 90.44134116 329.1796875 90.77758789 C338.55044181 91.42179862 347.90808782 92.18997486 357.26229858 93.03985596 C359.85786834 93.26846172 362.45447935 93.47007466 365.05249023 93.66870117 C379.31648989 94.85485389 390.42954706 98.29382413 400.30322266 109.2746582 C406.09262999 116.46966683 407.02682026 125.41254788 408.30322266 134.2746582 C408.40763672 134.95592773 408.51205078 135.63719727 408.61962891 136.33911133 C409.89883466 144.81587354 410.52997445 153.26571662 410.67822266 161.8371582 C410.70424561 162.65796875 410.73026855 163.4787793 410.75708008 164.32446289 C410.77750568 171.22409035 408.901552 176.30956666 404.33837891 181.5168457 C396.17403605 188.2746582 396.17403605 188.2746582 390.30322266 188.2746582 C390.27744141 188.94110352 390.25166016 189.60754883 390.22509766 190.29418945 C389.53127054 201.56888003 385.98659535 210.24108852 379.30322266 219.2746582 C378.72572266 220.1409082 378.14822266 221.0071582 377.55322266 221.8996582 C368.64834765 231.29924849 357.06096965 236.25340998 344.30322266 237.2746582 C330.85129128 237.42087485 319.71715403 233.78360213 309.30322266 225.2746582 C308.66642578 224.76290039 308.02962891 224.25114258 307.37353516 223.72387695 C299.9720341 217.09542156 294.79581883 207.05945531 293.30322266 197.2746582 C293.30322266 194.6346582 293.30322266 191.9946582 293.30322266 189.2746582 C218.39322266 189.2746582 143.48322266 189.2746582 66.30322266 189.2746582 C65.97322266 192.5746582 65.64322266 195.8746582 65.30322266 199.2746582 C60.40618862 212.80182759 52.05610606 222.59889562 39.30322266 229.2746582 C25.775064 234.96192119 11.80581757 234.54941071 -1.87255859 229.46606445 C-14.47724507 223.78258859 -22.87383578 213.5975006 -27.97021484 200.98950195 C-28.64125357 198.48212607 -28.97187633 196.17990488 -29.2421875 193.60498047 C-29.32844391 192.79416519 -29.41470032 191.98334991 -29.50357056 191.14796448 C-29.5673288 190.52977341 -29.63108704 189.91158234 -29.69677734 189.2746582 C-30.38867157 189.28576126 -31.0805658 189.29686432 -31.79342651 189.30830383 C-38.35358588 189.40900641 -44.91352568 189.48487447 -51.47428703 189.53371906 C-54.84631532 189.55967635 -58.2176984 189.59481326 -61.58935547 189.65185547 C-65.47689493 189.71286744 -69.36353204 189.7409526 -73.25146484 189.76293945 C-74.44665741 189.78874588 -75.64184998 189.81455231 -76.8732605 189.84114075 C-85.18204085 189.84389222 -92.22755504 188.47428997 -98.46191406 182.61599731 C-103.75495045 176.42198066 -102.15987231 166.88495898 -101.69677734 159.2746582 C-101.00001341 151.42311217 -99.97270472 143.61109423 -98.92578125 135.79980469 C-98.44743209 132.21706216 -97.99088804 128.63200926 -97.53662109 125.04614258 C-95.39953475 108.53054541 -93.05996014 92.94564249 -85.69677734 77.8371582 C-85.19766846 76.78729736 -84.69855957 75.73743652 -84.18432617 74.65576172 C-83.03891302 72.25699868 -81.88738516 69.86219711 -80.7265625 67.47094727 C-78.8036638 63.50604181 -76.91054894 59.52727915 -75.01828003 55.54768372 C-73.25807887 51.85254907 -71.48632839 48.16303293 -69.71166992 44.474823 C-68.83428388 42.64874414 -67.95987978 40.82122921 -67.08862305 38.99221802 C-59.5165853 23.12750618 -52.36237719 9.90304863 -35.11837196 3.12002087 C-23.84556179 -0.8152426 -11.76545023 -0.01541156 0 0 Z M-46.69677734 25.2746582 C-48.945313 28.57046637 -50.7150135 31.99736583 -52.44677734 35.5871582 C-52.94282471 36.57699707 -53.43887207 37.56683594 -53.94995117 38.58666992 C-55.55398027 41.80575066 -57.12639338 45.03904767 -58.69677734 48.2746582 C-59.80959547 50.53139705 -60.92288204 52.78790496 -62.03662109 55.04418945 C-67.15013371 65.47046175 -72.12971162 75.96387294 -76.82177734 86.5871582 C-77.1758667 87.36720215 -77.52995605 88.14724609 -77.89477539 88.95092773 C-82.76899502 100.25052625 -84.18059134 112.55039797 -85.63208008 124.6730957 C-85.88752413 126.80171369 -86.15379518 128.92878638 -86.42138672 131.0559082 C-87.13149929 136.82470788 -87.73848176 142.45400862 -87.69677734 148.2746582 C-78.33440144 148.43734236 -68.9725171 148.56147485 -59.60903263 148.63734341 C-55.26041051 148.67376985 -50.91276017 148.72312167 -46.56469727 148.80273438 C-42.36302173 148.87917924 -38.16227667 148.92072802 -33.95995903 148.9387989 C-32.36237386 148.9516648 -30.76483572 148.97678972 -29.16765022 149.0147686 C-18.6313358 149.38706911 -18.6313358 149.38706911 -9.36328125 144.84082031 C-8.13953843 143.65372092 -6.91716419 142.4652074 -5.69677734 141.2746582 C-2.18505859 139.5324707 -2.18505859 139.5324707 0.99072266 138.3996582 C2.57433594 137.81571289 2.57433594 137.81571289 4.18994141 137.2199707 C16.72223253 133.41468281 29.71245846 135.01981938 41.55322266 140.4621582 C53.00029389 146.71444832 60.98167346 156.62756369 64.79541016 169.10668945 C65.42683422 171.80238448 65.84805806 174.54367062 66.30322266 177.2746582 C141.21322266 177.2746582 216.12322266 177.2746582 293.30322266 177.2746582 C294.78822266 171.8296582 294.78822266 171.8296582 296.30322266 166.2746582 C301.66361741 153.00129977 309.02636498 144.78611695 322.24853516 138.98168945 C335.65676422 133.9216357 349.16350345 133.76109242 362.43603516 139.66918945 C369.55990703 143.42109531 369.55990703 143.42109531 372.1105957 146.35009766 C374.85152341 148.75592475 376.12884443 148.74519994 379.72509766 148.6652832 C380.74990234 148.65239258 381.77470703 148.63950195 382.83056641 148.6262207 C383.89404297 148.59270508 384.95751953 148.55918945 386.05322266 148.5246582 C387.13216797 148.50661133 388.21111328 148.48856445 389.32275391 148.4699707 C391.98381053 148.42287236 394.6430652 148.3571142 397.30322266 148.2746582 C396.28540158 127.98601535 396.28540158 127.98601535 385.55322266 111.3996582 C375.85096699 105.05587565 363.6162149 105.20132048 352.40087891 104.23168945 C350.4717183 104.05748093 348.54263699 103.88239223 346.6136322 103.70646667 C341.56373175 103.24845076 336.51279356 102.80306536 331.46154785 102.36016846 C327.32770567 101.99561903 323.19468077 101.62226667 319.06166935 101.24843311 C310.53240667 100.47702051 302.00262375 99.71126223 293.47143555 98.96142578 C292.68441757 98.89133301 291.8973996 98.82124023 291.08653259 98.74902344 C288.14726392 98.4925352 285.25534346 98.2746582 282.30322266 98.2746582 C282.10134842 98.89804581 281.89947418 99.52143341 281.69148254 100.16371155 C279.58059331 106.67390126 277.45257459 113.17831174 275.31469727 119.6796875 C274.51995791 122.104039 273.72954005 124.52981173 272.94360352 126.95703125 C271.81060434 130.45349107 270.66196224 133.94447925 269.51025391 137.43481445 C268.99118217 139.05396507 268.99118217 139.05396507 268.46162415 140.70582581 C265.95562737 148.22827011 263.2659709 155.33945223 255.80322266 159.1496582 C255.07103516 159.53895508 254.33884766 159.92825195 253.58447266 160.3293457 C248.97784785 162.2382553 244.55946249 162.40261145 239.61236572 162.4151001 C238.95290821 162.41807122 238.29345069 162.42104234 237.61400962 162.4241035 C235.41176815 162.43275148 233.2095813 162.43429543 231.00732422 162.43579102 C229.42514938 162.44042196 227.84297566 162.44544699 226.26080322 162.45083618 C221.96724392 162.46393569 217.67370025 162.47040037 213.38012409 162.47484684 C210.69534662 162.47778156 208.01057337 162.48188713 205.32579803 162.48635101 C196.91897485 162.50001959 188.51216137 162.50968934 180.10532784 162.5135529 C170.4134597 162.518032 160.7217327 162.5355757 151.02990746 162.5645535 C143.52993745 162.58619649 136.03000707 162.59625858 128.53000617 162.59759402 C124.05451764 162.59864019 119.57916191 162.6045078 115.10370636 162.62241364 C110.89132014 162.63893961 106.6791659 162.64102796 102.46675873 162.63227463 C100.92569862 162.63150667 99.3846258 162.63581504 97.84359741 162.64573288 C78.27922359 162.76420451 78.27922359 162.76420451 70.82275391 155.9855957 C68.05484991 152.86903542 65.76884295 149.38746814 63.38525391 145.97387695 C61.4476656 143.46191913 59.58833264 141.67255143 57.11572266 139.7121582 C51.70948357 135.21814688 48.81041017 129.82144344 47.81176758 122.83789062 C47.59199275 119.10171857 47.50806662 115.39210109 47.49072266 111.6496582 C47.46558594 110.35930664 47.44044922 109.06895508 47.41455078 107.73950195 C47.35612013 104.5842466 47.31951553 101.4303648 47.30322266 98.2746582 C46.72361629 98.27134806 46.14400991 98.26803791 45.54683971 98.26462746 C31.45065657 98.1834447 17.3545799 98.09136787 3.25854778 97.98713112 C-3.55816206 97.93698655 -10.37485977 97.89054391 -17.19165039 97.8527832 C-23.76637155 97.81635305 -30.34096731 97.76965022 -36.91557884 97.7165947 C-39.42784518 97.69801736 -41.94013968 97.68292185 -44.45244789 97.67131424 C-47.96282101 97.654509 -51.47289133 97.62548759 -54.9831543 97.59350586 C-56.02900192 97.59134567 -57.07484955 97.58918549 -58.15238953 97.58695984 C-59.10731293 97.57579636 -60.06223633 97.56463287 -61.0460968 97.5531311 C-61.87663228 97.54760035 -62.70716776 97.54206959 -63.56287098 97.53637123 C-65.69677734 97.2746582 -65.69677734 97.2746582 -68.69677734 95.2746582 C-69.36512095 90.34512584 -67.99188855 87.12165985 -65.80224609 82.7512207 C-65.49906464 82.13625732 -65.19588318 81.52129395 -64.8835144 80.88769531 C-63.89445691 78.88617104 -62.889657 76.8930264 -61.88427734 74.8996582 C-60.49616391 72.11060622 -59.11561755 69.31784159 -57.73583984 66.5246582 C-57.38991287 65.82700348 -57.0439859 65.12934875 -56.68757629 64.41055298 C-54.53605094 60.05053938 -52.49354727 55.66129844 -50.53271484 51.2121582 C-50.05938721 50.1401416 -49.58605957 49.068125 -49.09838867 47.96362305 C-48.23603684 45.99051174 -47.38590756 44.01199021 -46.55102539 42.02709961 C-42.71426654 33.30869072 -37.72379296 26.35734819 -29.0301466 22.12982702 C-24.86120361 20.60192909 -20.75388091 20.71929552 -16.35766602 20.75567627 C-15.34219318 20.74817502 -14.32672035 20.74067377 -13.28047562 20.7329452 C-9.89168917 20.71271146 -6.50357455 20.72076256 -3.11474609 20.72875977 C-0.68009277 20.72002246 1.75455481 20.70953612 4.18919373 20.69743347 C9.42364348 20.67533907 14.65796587 20.66537094 19.89245605 20.66654205 C27.46053099 20.66821412 35.02842193 20.6478479 42.59644771 20.62218675 C54.87646398 20.58114321 67.15644707 20.55780238 79.43652344 20.5456543 C91.3620116 20.53381895 103.28743732 20.51360901 115.21289062 20.48217773 C116.3164198 20.47927358 116.3164198 20.47927358 117.4422425 20.47631076 C121.1331434 20.46654591 124.82404384 20.45661685 128.51494408 20.44660616 C159.11100893 20.36383388 189.70706423 20.31011269 220.30322266 20.2746582 C216.3086316 15.19063323 210.14301826 12.85057738 203.87679315 11.91072547 C201.36712948 11.76161386 198.88773439 11.73605529 196.37380981 11.75999451 C195.42634821 11.75304898 194.4788866 11.74610345 193.50271404 11.73894745 C190.35540491 11.72077803 187.20885817 11.73091381 184.06152344 11.74121094 C181.79382772 11.73414736 179.52613671 11.7254005 177.25845337 11.71510315 C171.11786217 11.69264793 164.9775292 11.69554013 158.83691263 11.70442462 C153.70283611 11.70954392 148.5688077 11.70223421 143.43473613 11.69495255 C130.62679273 11.67699536 117.81902803 11.68335155 105.01109622 11.70112235 C93.9102444 11.71581287 82.80966341 11.70119543 71.70884646 11.67235219 C60.28626453 11.64289596 48.8638539 11.63251125 37.44122684 11.64153439 C31.03800052 11.64645478 24.63498459 11.64429582 18.23178482 11.62374687 C12.20858575 11.60534187 6.18588831 11.61140798 0.16271591 11.63594627 C-2.04145307 11.64093889 -4.24566058 11.63750494 -6.44979858 11.62479782 C-22.40605117 11.54012075 -35.52374979 12.36604203 -46.69677734 25.2746582 Z M-31.29443359 37.28027344 C-35.61373184 44.15463959 -38.84130604 51.71070051 -42.19677734 59.0871582 C-42.73947266 60.26858398 -43.28216797 61.45000977 -43.84130859 62.66723633 C-44.92306943 65.02309971 -46.00253844 67.38001695 -47.07958984 69.73803711 C-49.60338517 75.25731534 -52.15110761 80.76543017 -54.69677734 86.2746582 C-45.78677734 86.2746582 -36.87677734 86.2746582 -27.69677734 86.2746582 C-25.2767392 81.3363325 -22.85885137 76.39705272 -20.44580078 71.45532227 C-19.62859316 69.7832094 -18.81027783 68.11163734 -17.99072266 66.44067383 C-12.29644641 54.82826772 -6.86613044 43.13030216 -1.69677734 31.2746582 C-2.63245544 31.2500351 -2.63245544 31.2500351 -3.58703613 31.22491455 C-4.42053589 31.20298035 -5.25403564 31.18104614 -6.11279297 31.15844727 C-7.4166394 31.1251532 -7.4166394 31.1251532 -8.74682617 31.09118652 C-10.5449001 31.0423599 -12.34266281 30.981697 -14.14013672 30.91430664 C-21.05536994 30.82709255 -26.78405237 31.61817354 -31.29443359 37.28027344 Z M10.30322266 35.2746582 C7.8245219 38.38248496 6.0818375 41.72850677 4.30322266 45.2746582 C3.84450775 46.17746521 3.84450775 46.17746521 3.37652588 47.09851074 C1.26098905 51.2716066 -0.79336553 55.47208817 -2.82055664 59.6887207 C-3.88700671 61.90533117 -4.96225114 64.11751524 -6.03857422 66.3293457 C-6.73115544 67.7613841 -7.42323038 69.19366748 -8.11474609 70.6262207 C-8.43042038 71.27539459 -8.74609467 71.92456848 -9.07133484 72.59341431 C-11.23413698 77.10833845 -12.92345527 81.54579933 -14.69677734 86.2746582 C5.76322266 86.2746582 26.22322266 86.2746582 47.30322266 86.2746582 C47.30322266 68.1246582 47.30322266 49.9746582 47.30322266 31.2746582 C42.68322266 31.1921582 38.06322266 31.1096582 33.30322266 31.0246582 C31.14146484 30.97003418 31.14146484 30.97003418 28.93603516 30.91430664 C18.85760551 30.65276439 18.85760551 30.65276439 10.30322266 35.2746582 Z M58.30322266 31.2746582 C58.30322266 49.4246582 58.30322266 67.5746582 58.30322266 86.2746582 C61.93322266 86.2746582 65.56322266 86.2746582 69.30322266 86.2746582 C69.30322266 68.1246582 69.30322266 49.9746582 69.30322266 31.2746582 C65.67322266 31.2746582 62.04322266 31.2746582 58.30322266 31.2746582 Z M81.30322266 31.2746582 C81.30322266 49.4246582 81.30322266 67.5746582 81.30322266 86.2746582 C103.41322266 86.2746582 125.52322266 86.2746582 148.30322266 86.2746582 C148.30322266 68.1246582 148.30322266 49.9746582 148.30322266 31.2746582 C126.19322266 31.2746582 104.08322266 31.2746582 81.30322266 31.2746582 Z M160.30322266 31.2746582 C160.30322266 49.4246582 160.30322266 67.5746582 160.30322266 86.2746582 C163.93322266 86.2746582 167.56322266 86.2746582 171.30322266 86.2746582 C171.30322266 68.1246582 171.30322266 49.9746582 171.30322266 31.2746582 C167.67322266 31.2746582 164.04322266 31.2746582 160.30322266 31.2746582 Z M182.30322266 31.2746582 C182.30322266 49.4246582 182.30322266 67.5746582 182.30322266 86.2746582 C210.35322266 86.2746582 238.40322266 86.2746582 267.30322266 86.2746582 C261.62771356 77.33949727 261.62771356 77.33949727 255.77978516 68.5324707 C255.38931 67.95737762 254.99883484 67.38228455 254.5965271 66.7897644 C253.78239154 65.59134467 252.96750289 64.39343619 252.15185547 63.19604492 C250.93499045 61.40959385 249.72046362 59.62157219 248.50634766 57.83325195 C246.90771581 55.47878871 245.30141927 53.12980296 243.69091797 50.78344727 C242.06470521 48.40920656 240.47603403 46.01464238 238.90771484 43.60180664 C238.51611176 43.01011688 238.12450867 42.41842712 237.72103882 41.80880737 C236.64531348 40.1830992 235.58198684 38.54920619 234.51953125 36.91479492 C231.48998639 33.30590551 228.83596238 31.55376442 224.07559204 31.0291748 C221.40842134 30.92742151 218.7609485 30.93713767 216.09228516 30.98168945 C215.2333667 30.98471069 214.37444824 30.98773193 213.48950195 30.99084473 C210.30228541 31.00645868 207.11524108 31.04834239 203.92822266 31.0871582 C196.79197266 31.1490332 189.65572266 31.2109082 182.30322266 31.2746582 Z M59.30322266 98.2746582 C56.49209494 122.82793593 56.49209494 122.82793593 63.30322266 130.2746582 C64.33740631 131.16289866 65.39913658 132.0204901 66.49072266 132.8371582 C70.87056304 136.44297507 73.93719197 140.97449054 77.18994141 145.56762695 C79.19182792 148.13196586 80.53601496 149.62584408 83.30322266 151.2746582 C86.33122224 151.70858071 86.33122224 151.70858071 89.72412109 151.61523438 C91.02516785 151.61500778 92.3262146 151.61478119 93.66668701 151.61454773 C95.08199408 151.59922888 96.49729761 151.58358091 97.91259766 151.56762695 C99.36419232 151.56202928 100.81579266 151.55775999 102.26739502 151.55476379 C106.0815607 151.5433284 109.89538177 151.51387285 113.70941162 151.48065186 C118.28905618 151.44451654 122.86881619 151.43078356 127.44856262 151.41329193 C134.40035538 151.38423428 141.35139254 151.32673906 148.30322266 151.2746582 C148.30322266 133.7846582 148.30322266 116.2946582 148.30322266 98.2746582 C118.93322266 98.2746582 89.56322266 98.2746582 59.30322266 98.2746582 Z M160.30322266 98.2746582 C160.30322266 115.7646582 160.30322266 133.2546582 160.30322266 151.2746582 C175.41745068 151.39105082 175.41745068 151.39105082 190.53173828 151.4699707 C196.6986268 151.49385869 202.86527719 151.52208273 209.03198242 151.57641602 C214.00515791 151.61995794 218.97807793 151.64381311 223.95142937 151.65416718 C225.84641477 151.66154355 227.74138659 151.67594797 229.63626289 151.69757843 C232.29581769 151.72672351 234.95432422 151.7306096 237.61401367 151.72875977 C238.39301025 151.74314087 239.17200684 151.75752197 239.97460938 151.77233887 C245.51533592 151.73078827 248.7649596 150.50053469 253.30322266 147.2746582 C254.80603133 145.55162367 254.80603133 145.55162367 255.53857422 143.60229492 C255.84186646 142.90440857 256.14515869 142.20652222 256.4576416 141.48748779 C257.90715241 137.69421406 259.27402713 133.89204026 260.53759766 130.0324707 C260.82048645 129.18288788 261.10337524 128.33330505 261.39483643 127.45797729 C261.98580718 125.67906729 262.57388841 123.89919493 263.15917969 122.1184082 C264.05828239 119.38427174 264.96713673 116.65352059 265.87744141 113.9230957 C266.45222999 112.18890947 267.02646875 110.45454088 267.60009766 108.7199707 C267.87190857 107.90231232 268.14371948 107.08465393 268.42376709 106.24221802 C269.80177913 102.34127684 269.80177913 102.34127684 270.30322266 98.2746582 C234.00322266 98.2746582 197.70322266 98.2746582 160.30322266 98.2746582 Z M-9.57177734 159.1496582 C-16.15962462 167.33408964 -19.18190821 176.22385867 -18.57177734 186.7746582 C-17.20955879 197.53618476 -12.72220116 205.00161787 -4.69677734 212.2746582 C4.34488848 218.94564335 13.1142078 221.35790842 24.30322266 220.2746582 C34.95211879 218.05170113 42.6591633 213.13155447 49.17822266 204.4621582 C54.68090024 195.99748247 56.48176929 187.31173121 55.30322266 177.2746582 C52.65499673 166.8583029 47.17800888 157.59985484 37.94384766 151.7902832 C21.59566265 143.15925385 3.32418225 145.18360834 -9.57177734 159.1496582 Z M314.49072266 158.00512695 C307.81206549 165.3015599 303.67542321 174.95157574 303.99072266 184.94262695 C305.63391598 197.20495714 310.82336958 205.89404276 320.15087891 213.7355957 C328.46681233 219.68201633 337.28002015 221.1069526 347.30322266 220.2746582 C357.60587079 218.14484551 365.64209797 213.45898465 371.67822266 204.7746582 C377.31974353 195.585699 379.78498302 186.48712665 377.84228516 175.7199707 C375.10239993 165.37287472 368.96068407 157.47659977 360.30322266 151.2746582 C344.61820309 142.36330062 327.18293709 145.88734464 314.49072266 158.00512695 Z M-89.69677734 160.2746582 C-91.5120272 170.26004846 -91.5120272 170.26004846 -89.05541992 174.92553711 C-85.52779966 178.29233372 -81.23002072 177.95631254 -76.59220886 177.95443726 C-75.39308365 177.92346954 -74.19395844 177.89250183 -72.95849609 177.8605957 C-71.72259232 177.85210602 -70.48668854 177.84361633 -69.21333313 177.83486938 C-65.93941824 177.8070087 -62.66729581 177.75318074 -59.39398193 177.68664551 C-56.04911817 177.62508547 -52.7041761 177.59833834 -49.35888672 177.56762695 C-42.80415151 177.50150577 -36.25061096 177.40112454 -29.69677734 177.2746582 C-29.04962601 175.19173391 -28.40410569 173.10830282 -27.75927734 171.0246582 C-27.39962891 169.86450195 -27.03998047 168.7043457 -26.66943359 167.5090332 C-25.9496161 165.11542321 -25.30299542 162.69953051 -24.69677734 160.2746582 C-46.14677734 160.2746582 -67.59677734 160.2746582 -89.69677734 160.2746582 Z M384.30322266 160.2746582 C384.94259766 161.9865332 385.58197266 163.6984082 386.24072266 165.4621582 C387.58309165 169.05624294 388.64631646 172.49226149 389.30322266 176.2746582 C393.74498641 174.91745261 395.91658707 173.28079651 398.30322266 169.2746582 C398.91389549 166.2416498 399.11793035 163.37830439 399.30322266 160.2746582 C394.35322266 160.2746582 389.40322266 160.2746582 384.30322266 160.2746582 Z " fill="#000000" transform="translate(101.69677734375,139.725341796875)"/>
<path d="M0 0 C5.12884522 2.86659979 8.22819129 6.76273511 10.6875 12.0625 C12.47707241 19.29764242 12.0370076 25.43101519 8.6875 32.0625 C5.25342853 37.16454904 1.59179647 40.37826158 -4.3125 42.0625 C-11.96064037 42.9993972 -19.02141143 42.87421145 -25.3125 38.0625 C-30.46092847 33.02848105 -33.36216526 27.27644422 -33.6875 20.0625 C-33.40976215 13.63665605 -30.99333685 7.50329393 -26.3125 3.0625 C-17.86583557 -2.64215023 -9.491666 -4.08412015 0 0 Z M-20.1875 13.75 C-21.85018709 17.16774568 -21.9706974 20.38390789 -21.3125 24.0625 C-19.49732784 27.15501553 -18.02605858 28.64938714 -14.9375 30.4375 C-11.58598387 31.23548003 -9.60938018 31.09277506 -6.3125 30.0625 C-2.78224324 27.00294414 -0.48233333 24.97312498 -0.0625 20.25 C-0.3546383 16.52523668 -0.91497986 14.92405629 -3.3125 12.0625 C-10.26549528 8.52501117 -14.13846095 8.30586486 -20.1875 13.75 Z " fill="#000000" transform="translate(131.3125,302.9375)"/>
<path d="M0 0 C5.68086161 3.3375062 9.59227713 8.19149701 11.625 14.4375 C12.49609977 21.78107361 12.21659328 28.42278132 7.625 34.4375 C3.35374389 38.97191406 -0.88433979 42.02343548 -7.20703125 42.7734375 C-14.87832885 42.87397875 -20.4177899 42.16505058 -26.125 36.7890625 C-31.59114137 30.77105109 -32.85183148 25.50692078 -32.68359375 17.44140625 C-31.95806769 10.37900705 -28.59566441 6.10106812 -23.25390625 1.6640625 C-16.48277267 -2.75617855 -7.39669183 -3.32067283 0 0 Z M-17.375 12.4375 C-20.04124627 15.19568579 -21.19178573 17.59000031 -21.375 21.4375 C-20.0515335 25.25219756 -18.65274044 27.19132098 -15.625 29.875 C-11.54419416 31.83692588 -9.68025268 31.76821447 -5.375 30.4375 C-2.12537259 27.9649574 -0.65779022 26.34242871 0.5625 22.4375 C0.63267408 19.06914419 0.31100223 17.34968567 -1.375 14.4375 C-6.88502198 9.07639753 -10.80433212 8.29512243 -17.375 12.4375 Z " fill="#000000" transform="translate(453.375,302.5625)"/>
</svg>
