<svg width="93" height="93" viewBox="0 0 93 93" fill="none" xmlns="http://www.w3.org/2000/svg">
<path d="M42.0948 92.9117C35.5021 91.9645 31.3524 90.7954 26.5227 88.5253C13.9686 82.6241 4.62319 71.1136 1.32398 57.4896C-5.25135 30.3343 13.3958 3.46022 41.0514 0.235129C45.1941 -0.248063 52.1212 0.039931 56.0053 0.856605C69.5253 3.69931 81.4186 12.7095 87.6899 24.8601C96.5951 42.1147 94.1668 62.3796 81.4042 77.3117C74.9886 84.8179 64.7607 90.5696 54.7271 92.3138C51.9253 92.8008 43.9499 93.1784 42.0948 92.9117ZM47.4731 75.0023C48.4224 74.7753 49.347 74.4983 49.528 74.3865C50.0274 74.0779 49.9244 73.1657 48.965 69.4046C48.347 66.9823 48.1909 65.9258 48.4389 65.8447C49.7614 65.4122 51.0887 65.1693 51.1925 65.3409C51.2601 65.4527 51.7433 67.1834 52.2661 69.1873C52.7888 71.1911 53.3399 72.9536 53.4905 73.1042C53.8201 73.4341 58.0563 72.5442 58.822 71.9842C59.3177 71.6217 59.2905 71.3603 58.3756 67.7059C57.8398 65.5649 57.5189 63.7028 57.6624 63.5672C57.8057 63.4319 59.1484 62.818 60.6457 62.2027C66.5722 59.7684 69.1315 57.0747 70.0108 52.3461C70.6874 48.7094 69.1079 43.7165 66.6035 41.5726C65.3966 40.5399 63.1543 39.5253 62.0544 39.5146C61.7911 39.5123 61.3758 39.3834 61.1315 39.2288C60.7452 38.9843 60.7502 38.8755 61.171 38.3964C63.0138 36.2968 63.3637 32.4273 61.9806 29.4379C60.952 27.2144 59.182 25.2736 57.4668 24.4887C56.3596 23.9822 55.2551 23.8311 51.7049 23.7004L47.3127 23.539L46.755 21.2561C45.5278 16.2306 45.3419 15.7773 44.5081 15.7773C43.101 15.7773 39.7634 16.7675 39.5826 17.2385C39.4855 17.4922 39.7737 19.2188 40.2233 21.0757C40.6729 22.9329 41.0384 24.6169 41.0354 24.8183C41.0304 25.1422 39.2784 25.8156 38.429 25.8201C38.2542 25.821 37.7298 24.2581 37.2637 22.347C36.0921 17.5437 36.2187 17.663 33.1538 18.4701C31.7846 18.8305 30.5997 19.1254 30.5204 19.1254C30.1684 19.1254 30.4329 21.049 31.1997 24.0666C31.7273 26.1431 31.9227 27.4315 31.7357 27.602C31.5739 27.7497 29.3503 28.3851 26.7947 29.0139C24.2388 29.6425 22.0744 30.2761 21.9846 30.4212C21.7512 30.799 23.071 35.6314 23.5464 36.1404C23.8872 36.5052 24.2024 36.4943 25.7346 36.0643C28.7394 35.2211 30.0196 35.4815 30.5126 37.0348C31.1533 39.0535 35.9636 58.4804 36.0768 59.5067C36.1959 60.5862 36.1106 60.8427 35.503 61.2331C35.1108 61.4854 34.1323 61.7876 33.3289 61.9046C31.7769 62.1304 30.9835 62.6749 30.9872 63.5112C30.9936 64.9274 31.6134 69.1859 31.8468 69.4195C32.0009 69.5735 34.063 69.2101 36.7028 68.5639C39.2263 67.9464 41.4777 67.5125 41.7054 67.5999C41.9335 67.6874 42.3728 68.8357 42.6816 70.1518C43.8183 74.9938 44.0068 75.4377 44.9225 75.4256C45.3764 75.4196 46.5241 75.229 47.4731 75.0023ZM46.3561 58.3225C45.6585 56.3767 43.9083 48.4605 44.1426 48.3103C44.304 48.2068 45.7586 47.8056 47.3749 47.4189C54.4279 45.7316 58.6793 47.0287 58.683 50.8696C58.686 53.9566 56.264 55.9975 50.7159 57.5829C46.7762 58.7088 46.5109 58.7538 46.3561 58.3225ZM42.2471 42.1723C42.2471 42.1248 41.7678 40.1475 41.1819 37.7781C40.5959 35.4088 40.1163 33.3393 40.1163 33.1798C40.1163 32.6509 44.7828 31.605 47.1381 31.6063C49.9717 31.6079 51.1545 32.2381 52.0279 34.2127C52.5376 35.3644 52.5806 35.7532 52.2946 36.6195C51.6098 38.6944 48.5131 40.7305 44.4347 41.7874C42.5854 42.2665 42.2471 42.3262 42.2471 42.1723Z" fill="#4AC645"/>
</svg>
