<svg width="93" height="93" viewBox="0 0 93 93" fill="none" xmlns="http://www.w3.org/2000/svg">
<g clip-path="url(#clip0_1557_25)">
<path d="M91.5991 57.7485C85.3884 82.6595 60.1563 97.8185 35.2425 91.6078C10.3403 85.3971 -4.82015 60.1651 1.39196 35.2556C7.59971 10.3418 32.8303 -4.82013 57.7369 1.39053C82.6493 7.60119 97.8097 32.8362 91.5991 57.7485Z" fill="#F7931A"/>
<path d="M66.9979 39.875C67.9221 33.6876 63.211 30.3614 56.7693 28.1425L58.8589 19.7609L53.7556 18.4894L51.7212 26.6501C50.3814 26.3159 49.0038 26.0006 47.635 25.6881L49.6839 17.4736L44.5849 16.2021L42.4938 24.5809C41.3836 24.328 40.2938 24.0781 39.2359 23.8151L39.2417 23.7889L32.2057 22.0321L30.8485 27.4813C30.8485 27.4813 34.6339 28.3488 34.554 28.4026C36.6203 28.9184 36.9952 30.2858 36.9313 31.3699L34.5511 40.9184C34.6935 40.9547 34.878 41.007 35.0814 41.0884L34.5438 40.9547L31.206 54.3307C30.9531 54.9584 30.3123 55.9001 28.8679 55.5426C28.9187 55.6167 25.1595 54.617 25.1595 54.617L22.6267 60.4585L29.2675 62.1136C30.5026 62.4231 31.7131 62.7472 32.9032 63.0523L30.7918 71.5313L35.8879 72.8028L37.9804 64.4154C39.3711 64.7932 40.7225 65.1419 42.0448 65.4703L39.961 73.8186L45.063 75.09L47.1743 66.6285C55.8742 68.2749 62.4176 67.6108 65.1684 59.7436C67.3873 53.408 65.0594 49.7533 60.4821 47.3688C63.8155 46.5972 66.328 44.4044 66.9979 39.875ZM55.3395 56.2212C53.7614 62.5568 43.0954 59.1333 39.6355 58.273L42.4372 47.0418C45.8956 47.905 56.9829 49.6138 55.3395 56.2212ZM56.9161 39.7835C55.4775 45.5466 46.5989 42.6185 43.7174 41.9007L46.2574 31.7143C49.139 32.4321 58.4157 33.7719 56.9161 39.7835Z" fill="white"/>
</g>
<defs>
<clipPath id="clip0_1557_25">
<rect width="93" height="93" fill="white"/>
</clipPath>
</defs>
</svg>
