<svg width="93" height="93" viewBox="0 0 93 93" fill="none" xmlns="http://www.w3.org/2000/svg">
<g clip-path="url(#clip0_1557_28)">
<path d="M93.0002 46.4997C93.0002 72.1811 72.1818 93 46.5007 93C20.8194 93 0.000732422 72.1811 0.000732422 46.4997C0.000732422 20.8186 20.8194 0 46.5007 0C72.1815 0 93.0002 20.8186 93.0002 46.4997Z" fill="#3D599B"/>
<path d="M83.1275 46.5005C83.1275 66.7279 66.729 83.1278 46.5005 83.1278C26.2722 83.1278 9.87256 66.7279 9.87256 46.5005C9.87256 26.2713 26.2722 9.87256 46.5005 9.87256C66.7293 9.87256 83.1275 26.271 83.1275 46.5005Z" fill="#3D599B"/>
<path d="M43.7827 58.922L46.803 47.5492L53.9537 44.9368L55.7323 38.253L55.6716 38.0872L48.6328 40.6587L53.7043 21.5625H39.3214L32.689 46.4835L27.1515 48.5064L25.3218 55.3969L30.8551 53.3757L26.9462 68.0628H65.2248L67.6787 58.922H43.7827Z" fill="white"/>
</g>
<defs>
<clipPath id="clip0_1557_28">
<rect width="93" height="93" fill="white"/>
</clipPath>
</defs>
</svg>
