<svg width="190" height="190" viewBox="0 0 190 190" fill="none" xmlns="http://www.w3.org/2000/svg">
<path d="M22.3695 101.439C24.1639 100.823 25.9477 100.49 27.791 100.523C31.036 100.581 33.9805 101.545 36.5979 103.473C37.0362 103.795 37.4537 104.146 37.9259 104.52C39.1384 102.338 40.7334 100.541 42.7613 99.1367C44.7931 97.7295 47.0624 96.9432 49.5386 96.5928C50.0593 90.6193 52.247 85.3908 56.3127 80.9972C59.7473 77.2858 63.9052 74.6985 68.832 73.5479C78.6888 71.2459 87.1343 73.9091 94.2617 81.0426C99.9131 76.7855 105.892 76.3949 112.18 79.8171C114.59 73.487 118.709 68.648 124.699 65.4422C128.64 63.3333 132.873 62.333 137.313 62.4077C143.492 62.5116 149.031 64.5159 153.792 68.4901C158.55 72.4626 161.498 77.5378 162.776 83.6009C163.672 84.0324 164.595 84.4173 165.462 84.9037C170.32 87.632 173.427 91.7101 174.748 97.1208C175.267 99.247 175.401 101.408 175.101 103.585C175.065 103.847 175.125 104.044 175.344 104.242C178.806 107.383 181.141 111.214 182.331 115.734C183.077 118.567 183.221 121.437 182.917 124.348C182.625 127.141 181.816 129.774 180.562 132.27C179.535 134.313 178.21 136.15 176.628 137.814C174.887 139.644 172.904 141.136 170.698 142.347C170.505 142.453 170.296 142.529 169.976 142.672C169.976 142.332 169.976 142.071 169.976 141.811C169.976 136.254 169.999 130.697 169.967 125.14C169.948 121.844 168.712 119.018 166.448 116.63C164.563 114.641 162.264 113.404 159.583 112.891C158.852 112.751 158.095 112.699 157.35 112.697C152.932 112.69 148.671 111.908 144.524 110.362C138.694 108.188 132.84 106.08 126.975 104.001C123.884 102.905 120.693 102.177 117.425 101.831C116.112 101.692 114.791 101.555 113.472 101.539C108.214 101.474 102.955 101.379 97.699 101.444C91.1606 101.525 85.0873 103.301 79.5251 106.785C76.219 108.855 72.8893 110.889 69.5454 112.899C66.5417 114.703 63.2751 115.698 59.7758 116.004C54.4516 116.469 49.1765 117.262 43.9653 118.477C38.0596 119.853 32.3021 121.671 26.7431 124.096C24.2673 125.176 21.7893 126.275 19.542 127.786C15.5891 130.445 13.2785 134.158 12.6697 138.895C12.5556 139.783 12.5276 140.682 12.4601 141.574C8.69538 140.906 3.58009 136.996 2.50487 130.691C1.41747 124.315 4.82276 117.178 12.4248 114.885C13.0724 108.439 16.3142 103.939 22.3695 101.439ZM140.266 76.2992C140.622 76.1777 140.979 76.0563 141.385 75.9182C139.017 75.3376 137.557 73.8835 136.961 71.4588C136.388 73.9299 134.881 75.3489 132.498 75.9322C135.03 76.5266 136.422 78.0736 136.965 80.3933C137.41 78.5123 138.401 77.1176 140.266 76.2992ZM131.848 81.4276C130.875 81.0015 130.293 80.2284 129.927 79.0767C129.518 80.4883 128.681 81.2691 127.348 81.6756C128.694 82.0384 129.485 82.8588 129.951 84.2247C130.368 82.825 131.233 82.0876 132.443 81.6475C132.229 81.5631 132.09 81.5082 131.848 81.4276ZM141.217 83.3334C141.508 82.5171 142.088 81.9821 142.948 81.6516C142.034 81.3465 141.485 80.7613 141.149 79.8809C140.845 80.8028 140.269 81.3469 139.374 81.6557C140.258 81.9917 140.868 82.5336 141.217 83.3334Z" fill="#019DE0"/>
<path d="M53.4672 132.159C55.4707 133.96 56.5514 136.184 56.932 138.772C56.9386 138.817 56.9761 138.858 57.0302 138.958C58.0684 138.958 59.1384 138.966 60.2082 138.956C65.6901 138.909 71.1719 138.84 76.654 138.811C86.1948 138.762 95.7357 138.726 105.277 138.709C108.505 138.703 111.733 138.775 114.961 138.807C116.939 138.826 118.918 138.826 120.896 138.856C122.721 138.884 124.545 138.941 126.37 138.983C126.468 138.985 126.566 138.967 126.703 138.955C127.228 135.384 128.93 132.572 132.122 130.785C134.409 129.505 136.875 129.108 139.436 129.684C144.602 130.847 147.685 135.226 147.497 139.628C147.253 138.763 147.059 137.671 146.641 136.672C145.301 133.469 142.903 131.493 139.471 130.822C135.905 130.126 131.694 131.745 129.665 135.522C128.986 136.787 128.571 138.147 128.59 139.609C128.595 140.005 128.59 140.402 128.59 140.786C128.472 140.841 128.407 140.896 128.341 140.898C127.093 140.944 125.845 141.01 124.596 141.021C121.391 141.048 118.184 141.042 114.979 141.066C111.175 141.094 107.371 141.159 103.568 141.172C95.9028 141.199 88.2379 141.206 80.5729 141.211C77.0914 141.213 73.6098 141.203 70.1284 141.173C66.1499 141.138 62.1714 141.085 58.1932 141.02C57.1772 141.003 56.1624 140.912 55.0881 140.852C55.2774 137.818 54.3643 135.187 52.1473 133.128C50.3815 131.488 48.2249 130.644 45.7938 130.67C41.2797 130.717 36.8658 133.912 36.1977 139.806C36.0895 137.235 36.8913 134.965 38.5706 133.027C40.1451 131.209 42.1394 130.069 44.5137 129.635C47.8843 129.02 50.8366 129.935 53.4672 132.159Z" fill="#9A9A9A"/>
<path d="M103.101 60.4156C102.405 62.1469 101.216 63.3043 99.4948 63.8421C95.8054 64.9951 92.1841 62.196 92.1846 58.4832C92.1849 55.6979 94.2981 53.201 97.1685 52.8761C100.431 52.5067 103.103 54.9816 103.39 57.7176C103.487 58.641 103.347 59.4936 103.101 60.4156Z" fill="#999999"/>
<path d="M163.203 57.3846C164.625 56.7847 165.953 56.9106 167.186 57.698C168.73 58.6833 169.361 60.2213 169.134 61.7832C168.808 64.0244 167.434 65.1247 165.862 65.4333C163.932 65.8121 162.278 65.2466 161.152 63.3311C160.229 61.7608 160.57 59.5004 161.908 58.2271C162.261 57.8904 162.732 57.6766 163.203 57.3846Z" fill="#999999"/>
<path d="M182.109 99.1459C183.079 97.943 184.266 97.288 185.785 97.3567C188.098 97.4615 189.773 99.3401 189.843 101.47C189.915 103.656 188.279 105.484 186.368 105.819C184.121 106.214 181.641 104.758 181.371 102.044C181.269 101.02 181.488 100.054 182.109 99.1459Z" fill="#999999"/>
<path d="M38.9629 81.7786C39.8388 82.9154 39.9677 84.1709 39.6595 85.4463C39.2404 87.1806 37.4854 88.3894 35.6549 88.322C33.7983 88.2537 32.2739 87.0289 31.8796 85.1641C31.5059 83.3961 32.1555 81.737 33.8402 80.7771C35.3868 79.8959 37.3307 80.1671 38.6099 81.4191C38.717 81.5239 38.8216 81.6313 38.9629 81.7786Z" fill="#999999"/>
<path d="M0.0631104 109.449C0.528067 107.532 2.73321 106.648 4.37359 107.694C5.58864 108.469 5.84531 109.617 5.56297 110.893C5.30321 112.068 4.18924 112.9 3.00157 112.938C1.64796 112.98 0.515174 112.268 0.176287 111.062C0.0387517 110.573 0.090098 110.031 0.0631104 109.449Z" fill="#999999"/>
<path d="M140.211 76.3161C138.401 77.1175 137.41 78.5122 136.965 80.3932C136.422 78.0735 135.03 76.5265 132.498 75.9321C134.881 75.3488 136.388 73.9298 136.96 71.4587C137.557 73.8834 139.017 75.3375 141.385 75.9181C140.979 76.0562 140.622 76.1776 140.211 76.3161Z" fill="#F9FDFE"/>
<path d="M131.899 81.4406C132.09 81.5084 132.229 81.5632 132.443 81.6477C131.233 82.0878 130.368 82.8251 129.951 84.2248C129.485 82.8589 128.694 82.0385 127.348 81.6758C128.681 81.2692 129.518 80.4885 129.927 79.0769C130.293 80.2285 130.875 81.0017 131.899 81.4406Z" fill="#F4FBFE"/>
<path d="M141.184 83.3638C140.869 82.5338 140.258 81.992 139.374 81.6559C140.269 81.3472 140.845 80.8031 141.149 79.8811C141.485 80.7615 142.034 81.3468 142.948 81.6518C142.088 81.9824 141.508 82.5174 141.184 83.3638Z" fill="#F4FBFE"/>
</svg>
