<svg width="67" height="82" viewBox="0 0 67 82" fill="none" xmlns="http://www.w3.org/2000/svg">
<path d="M16.2 58.22L15.4499 63.6866C15.3 64.9166 15.5998 66.1466 16.4998 66.9666C17.2499 67.7866 18.4498 68.3332 19.7998 68.3332H25.0498C26.3998 68.3332 27.8998 67.9232 28.6498 66.9666C29.3999 66.01 29.8499 64.9166 29.6998 63.6866L28.9497 58.22C28.6497 56.17 26.6997 54.6666 24.4497 54.6666H20.7C18.45 54.6666 16.5 56.17 16.2 58.22ZM25.95 58.63L26.7001 64.0966C26.85 64.5066 26.7001 64.9166 26.4 65.19C26.1 65.4634 25.65 65.6 25.2 65.6H19.9499C19.4999 65.6 19.0499 65.4634 18.7498 65.19C18.4498 64.9166 18.4498 64.5066 18.4498 64.0966L19.1998 58.63C19.3498 57.9466 19.9499 57.4 20.6998 57.4H24.4497C25.2 57.4 25.7999 57.9466 25.95 58.63Z" fill="#00C3FF"/>
<path d="M14.9999 45.1002H22.5C23.4 45.1002 23.9999 44.5536 23.9999 43.7336C23.9999 42.9136 23.4 42.3669 22.5 42.3669H14.9999C14.0999 42.3669 13.5 42.9136 13.5 43.7336C13.5 44.5536 14.0999 45.1002 14.9999 45.1002Z" fill="black"/>
<path d="M28.4999 45.1002H29.9999C30.8999 45.1002 31.4998 44.5536 31.4998 43.7336C31.4998 42.9136 30.8999 42.3669 29.9999 42.3669H28.4999C27.5999 42.3669 27 42.9136 27 43.7336C27 44.5536 27.5999 45.1002 28.4999 45.1002Z" fill="black"/>
<path d="M57.6 71.0666H56.8549C56.9498 70.626 56.9999 70.1693 56.9999 69.7V66.9666C56.9999 66.1466 56.3999 65.6 55.4999 65.6H54V16.4C54 7.38 45.9 0 36 0C26.1 0 18 7.38 18 16.4V24.6C17.1 24.6 16.5001 25.1466 16.5001 25.9666V31.0993C10.1834 33.3979 6.00012 38.8789 6.00012 45.0998V61.5H4.5C1.94994 61.5 0 63.2766 0 65.6V75.1666C0 77.49 1.94994 79.2666 4.5 79.2666H6.24182C6.83789 80.8848 8.48022 82 10.4999 82H16.4999H28.4999H34.4999H64.4999C65.3999 82 65.9999 81.4534 66.15 80.6334V78.31C66.15 74.3466 62.2499 71.0666 57.6 71.0666ZM49.1989 73.7907C49.1954 73.7906 49.192 73.7902 49.1885 73.7901C47.6805 73.6938 46.4523 72.9018 45.7501 71.7502C45.6421 71.6027 45.5142 71.4739 45.3674 71.368C45.1308 70.8624 45 70.2998 45 69.7002V68.3335H46.4999H52.4999H53.9998V69.7002C53.9998 70.4053 53.8193 71.0597 53.4976 71.6297C53.4637 71.6686 53.4305 71.7082 53.3997 71.7502C52.557 72.9018 51.3199 73.6938 49.8113 73.7901C49.8078 73.7902 49.8043 73.7906 49.8008 73.7907C49.7016 73.7968 49.6012 73.8 49.4996 73.8C49.3984 73.8 49.298 73.7968 49.1989 73.7907ZM22.5 35.5334C20.8499 35.5334 19.4999 34.3034 19.4999 32.8V27.3334H25.4999V31.98V32.5266C25.4999 34.1384 24.1954 35.3518 22.7268 35.5228C22.6517 35.5279 22.5765 35.5334 22.5 35.5334ZM27 24.6V16.4C27 11.89 31.05 8.2 36 8.2C40.95 8.2 45 11.89 45 16.4V65.6C45 63.2766 43.0501 61.5 40.5 61.5H39.0001V45.1C39.0001 38.8791 34.8168 33.3979 28.5001 31.0995V25.9668C28.4999 25.1466 27.9 24.6 27 24.6ZM40.05 71.0666C39.7499 71.0666 39.2999 71.0666 39.0001 71.0666V64.2332H40.5C41.4 64.2332 41.9999 64.7798 41.9999 65.5998V66.9665V69.7V71.0666H41.5499H40.05ZM21.0001 16.4C21.0001 8.88339 27.7501 2.73339 36 2.73339C44.2499 2.73339 50.9999 8.88339 50.9999 16.4V65.6H47.9999V16.4C47.9999 10.3866 42.5999 5.46661 35.9998 5.46661C29.3998 5.46661 23.9998 10.3866 23.9998 16.4V24.6H20.9997V16.4H21.0001ZM3.00006 75.1666V65.6C3.00006 64.78 3.6 64.2334 4.5 64.2334H5.99994V76.5334H4.5C3.6 76.5334 3.00006 75.9866 3.00006 75.1666ZM9 77.9V62.8666V45.1C9 40.3166 12.0001 36.08 16.65 34.03C16.6584 34.0567 16.6678 34.0838 16.6767 34.1107C16.8472 34.7361 17.136 35.3202 17.5213 35.841C17.7541 36.1875 18.0163 36.5049 18.3001 36.7634C19.5001 37.8568 21.15 38.4034 22.8001 38.2668C23.3072 38.2411 23.7983 38.1575 24.2657 38.0235C25.8098 37.5871 27.0909 36.5943 27.8263 35.306C27.8401 35.2821 27.8536 35.2579 27.867 35.2339C27.8879 35.1959 27.9086 35.158 27.9285 35.1195C27.9582 35.0628 27.9865 35.0055 28.0141 34.9477C28.0192 34.937 28.0246 34.9266 28.0296 34.9158C28.1628 34.6317 28.2711 34.3359 28.35 34.0302C32.9999 35.9435 36 40.3168 36 45.1002V62.8668V72.8365C35.8951 72.9132 35.7924 72.9919 35.692 73.0726C35.6423 73.1112 35.5943 73.1509 35.546 73.1903C35.538 73.1969 35.5301 73.2034 35.5224 73.21C34.309 74.2094 33.512 75.4929 33.1791 76.8523C33.174 76.8728 33.1701 76.8937 33.1652 76.9142C33.143 77.009 33.1214 77.104 33.1037 77.1996C33.0935 77.2539 33.0863 77.309 33.0775 77.3638C33.0671 77.4295 33.0553 77.4951 33.0472 77.5611C33.037 77.6431 33.0305 77.7261 33.0235 77.8089C33.02 77.8502 33.0147 77.8915 33.0121 77.933C33.0042 78.0579 33.0001 78.1836 33.0001 78.3102V79.2668H30.0001V77.6268C30.0001 75.5768 28.2001 73.8002 25.8001 73.8002H19.2001C16.9501 73.8002 15.0001 75.4402 15.0001 77.6268V79.2668H10.5001C9.59994 79.2666 9 78.72 9 77.9ZM18 79.2666V77.6266C18 77.08 18.45 76.5332 19.2001 76.5332H25.8001C26.4001 76.5332 27.0002 76.9432 27.0002 77.6266V79.2666H18ZM63 79.2666H36V78.31C36 75.85 38.5501 73.8 41.5499 73.8H43.4642C44.8204 75.4685 47.0006 76.5334 49.4998 76.5334C51.9991 76.5334 54.1793 75.4685 55.5354 73.8H57.4497C60.4498 73.8 62.9996 75.85 62.9996 78.31V79.2666H63Z" fill="black"/>
</svg>
