<svg width="80" height="80" viewBox="0 0 80 80" fill="none" xmlns="http://www.w3.org/2000/svg">
<g clip-path="url(#clip0_1276_385)">
<path d="M69.4442 16.4445C64.4086 15.1005 59.4891 13.3542 54.7331 11.2223C50.0541 9.19252 45.5372 6.80778 41.222 4.08893L39.9998 3.33337L38.7998 4.11115C34.4846 6.83 29.9677 9.21474 25.2887 11.2445C20.5249 13.3699 15.5979 15.1089 10.5553 16.4445L8.88867 16.8667V35.4C8.88867 65.1556 38.9553 76.2889 39.2442 76.4L39.9998 76.6667L40.7553 76.4C41.0664 76.4 71.1109 65.1778 71.1109 35.4V16.8667L69.4442 16.4445ZM66.6664 35.4C66.6664 59.8445 44.4442 70.0889 39.9998 71.9112C35.5553 70.0889 13.3331 59.8223 13.3331 35.4V20.3112C18.0208 18.9635 22.6096 17.2929 27.0665 15.3112C31.5236 13.3845 35.8447 11.1571 39.9998 8.64449C44.1549 11.1571 48.476 13.3845 52.9331 15.3112C57.39 17.2929 61.9787 18.9635 66.6664 20.3112V35.4Z" fill="black"/>
<path d="M28.6446 38.4921C28.338 38.2377 27.9437 38.1047 27.5405 38.1198C27.1372 38.1349 26.7547 38.2969 26.4693 38.5735C26.1839 38.8501 26.0168 39.2209 26.0012 39.6117C25.9856 40.0026 26.1228 40.3848 26.3853 40.6819L35.9992 50L53.5126 33.6777C53.8186 33.3894 53.9938 32.9951 53.9998 32.5815C54.0059 32.1679 53.8421 31.769 53.5446 31.4724C53.2472 31.1759 52.8403 31.006 52.4136 31.0002C51.9869 30.9943 51.5753 31.153 51.2693 31.4414L36.0954 45.7137L28.6446 38.4921Z" fill="#00CCFF"/>
</g>
<defs>
<clipPath id="clip0_1276_385">
<rect width="80" height="80" fill="white"/>
</clipPath>
</defs>
</svg>
