<svg width="128" height="122" viewBox="0 0 128 122" fill="none" xmlns="http://www.w3.org/2000/svg">
<path d="M125.21 116.371C110.661 116.371 106.337 104.813 105.191 100.196L109.343 98.7607C109.634 98.66 109.902 98.5029 110.132 98.2985C110.362 98.0941 110.55 97.8463 110.684 97.5693C110.819 97.2924 110.897 96.9917 110.915 96.6843C110.933 96.377 110.891 96.0692 110.79 95.7783L97.8994 58.6094H113.277C113.899 58.6094 114.495 58.3624 114.935 57.9229C115.374 57.4834 115.621 56.8872 115.621 56.2656V52.3018H120.76V56.21C120.76 56.8316 121.007 57.4277 121.446 57.8672C121.886 58.3068 122.482 58.5537 123.104 58.5537C123.725 58.5537 124.321 58.3068 124.761 57.8672C125.2 57.4277 125.447 56.8316 125.447 56.21V43.7148C125.447 43.0932 125.2 42.4971 124.761 42.0576C124.321 41.618 123.725 41.3711 123.104 41.3711C122.482 41.3711 121.886 41.618 121.446 42.0576C121.007 42.4971 120.76 43.0932 120.76 43.7148V47.626H115.627V37.46C115.627 36.8384 115.38 36.2422 114.94 35.8027C114.501 35.3631 113.905 35.1162 113.283 35.1162H74.9746V28.1553C77.9938 26.9586 80.5847 24.8841 82.4127 22.1997C84.2406 19.5153 85.2214 16.3443 85.2285 13.0967V5.62891H87.666C88.2876 5.62891 88.8838 5.38198 89.3233 4.94244C89.7628 4.5029 90.0098 3.90676 90.0098 3.28516C90.0098 2.66356 89.7628 2.06741 89.3233 1.62788C88.8838 1.18834 88.2876 0.941406 87.666 0.941406H50.3887C49.7671 0.941406 49.1709 1.18834 48.7314 1.62788C48.2919 2.06741 48.0449 2.66356 48.0449 3.28516C48.0449 3.90676 48.2919 4.5029 48.7314 4.94244C49.1709 5.38198 49.7671 5.62891 50.3887 5.62891H52.8291V13.0967C52.8358 16.3444 53.8165 19.5155 55.6445 22.2C57.4724 24.8845 60.0636 26.959 63.083 28.1553V35.1162H38.2803C37.6587 35.1162 37.0625 35.3631 36.623 35.8027C36.1835 36.2422 35.9365 36.8384 35.9365 37.46V38.5264L25.5596 44.5176H21.7188C21.0971 44.5176 20.501 44.7645 20.0615 45.204C19.6219 45.6436 19.375 46.2397 19.375 46.8613C19.375 47.4829 19.6219 48.0791 20.0615 48.5186C20.501 48.9581 21.0971 49.2051 21.7188 49.2051H25.5596L35.9365 55.1963V56.2598C35.9365 56.8814 36.1835 57.4775 36.623 57.917C37.0625 58.3566 37.6587 58.6035 38.2803 58.6035H54.7129V80.2393L49.293 85.6592C49.0754 85.8769 48.9029 86.1354 48.7852 86.4199C48.6675 86.7043 48.607 87.0091 48.6072 87.3169C48.6073 87.6248 48.6681 87.9296 48.786 88.2139C48.9039 88.4982 49.0767 88.7566 49.2944 88.9741C49.5122 89.1917 49.7707 89.3642 50.0551 89.4819C50.3396 89.5996 50.6444 89.6601 50.9522 89.6599C51.26 89.6598 51.5648 89.599 51.8491 89.4811C52.1335 89.3632 52.3918 89.1904 52.6094 88.9727L58.7266 82.8701C58.7822 82.8145 58.835 82.7559 58.8848 82.6973L58.9434 82.6182L59.0195 82.5127C59.043 82.4805 59.0606 82.4453 59.0811 82.4131L59.1396 82.3164L59.1895 82.2109C59.2041 82.1758 59.2217 82.1436 59.2363 82.1084C59.251 82.0732 59.2627 82.0381 59.2744 82.0029C59.2897 81.9668 59.3024 81.9296 59.3125 81.8916C59.3125 81.8564 59.333 81.8213 59.3418 81.7832C59.3506 81.7451 59.3623 81.707 59.3682 81.6689C59.374 81.6309 59.3828 81.584 59.3887 81.543C59.3945 81.502 59.3887 81.4756 59.3887 81.4434C59.393 81.3663 59.393 81.289 59.3887 81.2119V58.6035H72.8125C74.8316 58.604 76.8003 59.2334 78.4452 60.4042C80.0902 61.5751 81.3296 63.2292 81.9912 65.1367L94.5566 101.392C94.6574 101.682 94.8145 101.951 95.0189 102.181C95.2233 102.411 95.4711 102.599 95.7481 102.733C96.025 102.867 96.3257 102.946 96.633 102.964C96.9403 102.982 97.2482 102.94 97.5391 102.839L100.762 101.726C101.536 104.62 102.733 107.384 104.315 109.929C107.512 115.003 113.734 121.062 125.213 121.062C125.834 121.062 126.431 120.815 126.87 120.375C127.31 119.936 127.557 119.339 127.557 118.718C127.557 118.096 127.31 117.5 126.87 117.06C126.431 116.621 125.834 116.374 125.213 116.374L125.21 116.371ZM67.7705 29.248H67.8555C67.9873 29.248 68.1191 29.2656 68.251 29.2715C68.3154 29.2715 68.377 29.2715 68.4414 29.2715C68.6348 29.2715 68.8311 29.2715 69.0273 29.2715C69.2236 29.2715 69.4229 29.2715 69.6133 29.2715H69.792C69.9268 29.2715 70.0645 29.2715 70.1992 29.248H70.2812V35.1074H67.7646L67.7705 29.248ZM57.5166 13.0967V5.62891H80.541V13.0967C80.5416 14.7516 80.185 16.3872 79.4957 17.8917C78.8064 19.3962 77.8005 20.7343 76.5467 21.8145C75.2929 22.8947 73.8208 23.6917 72.2309 24.1509C70.6409 24.6102 68.9706 24.7209 67.334 24.4756C66.8973 24.4133 66.4648 24.3242 66.0391 24.209C63.5967 23.5473 61.4395 22.1012 59.8996 20.0933C58.3596 18.0855 57.5224 15.6271 57.5166 13.0967ZM30.874 46.8613L35.9365 43.9316V49.791L30.874 46.8613ZM93.9619 85.3311L89.7812 73.252C90.1736 73.4249 90.5427 73.6463 90.8799 73.9111C92.2041 74.9248 93.3496 76.6182 94.0205 78.5547C94.9551 81.2705 94.7617 83.834 93.9619 85.3311ZM95.6787 90.2764C99.1299 87.9941 100.366 82.5537 98.4443 77.0195C97.4658 74.1982 95.79 71.7725 93.7275 70.1904C91.9375 68.8193 89.9482 68.1777 88.0703 68.3242L86.4326 63.6045C85.4516 60.7762 83.6141 58.3236 81.1754 56.5874C78.7367 54.8511 75.8178 53.9175 72.8242 53.916H40.624V53.8896C40.624 53.8896 40.624 53.8604 40.624 53.8428V39.877C40.624 39.8623 40.624 39.8477 40.624 39.8301V39.8037H110.937V53.916H94.6123C94.2385 53.916 93.8702 54.0053 93.538 54.1766C93.2058 54.3478 92.9193 54.5961 92.7026 54.9006C92.4858 55.205 92.345 55.557 92.292 55.9269C92.2389 56.2969 92.275 56.6742 92.3975 57.0273L105.581 95.0928L101.731 96.4258H101.714L98.2187 97.6357L95.6787 90.2764ZM10.9727 49.2051H2.79004C2.16844 49.2051 1.5723 48.9581 1.13276 48.5186C0.69322 48.0791 0.446289 47.4829 0.446289 46.8613C0.446289 46.2397 0.69322 45.6436 1.13276 45.204C1.5723 44.7645 2.16844 44.5176 2.79004 44.5176H10.9727C11.5943 44.5176 12.1904 44.7645 12.6299 45.204C13.0695 45.6436 13.3164 46.2397 13.3164 46.8613C13.3164 47.4829 13.0695 48.0791 12.6299 48.5186C12.1904 48.9581 11.5943 49.2051 10.9727 49.2051ZM15.042 40.416C14.8881 40.6827 14.6833 40.9164 14.4391 41.1039C14.1949 41.2914 13.9161 41.4289 13.6187 41.5086C13.3214 41.5883 13.0112 41.6086 12.706 41.5685C12.4008 41.5283 12.1064 41.4284 11.8398 41.2744L4.76172 37.1729C4.48667 37.0235 4.24433 36.8206 4.04898 36.576C3.85363 36.3315 3.70924 36.0503 3.62432 35.7491C3.5394 35.4478 3.51568 35.1326 3.55455 34.8221C3.59342 34.5115 3.6941 34.2119 3.85064 33.9409C4.00719 33.6699 4.21642 33.433 4.46602 33.2441C4.71561 33.0553 5.00049 32.9183 5.30386 32.8414C5.60723 32.7644 5.92295 32.749 6.23237 32.796C6.5418 32.8431 6.83867 32.9516 7.10547 33.1152L14.1836 37.2168C14.4499 37.3714 14.6832 37.5769 14.87 37.8217C15.0569 38.0665 15.1936 38.3456 15.2725 38.6433C15.3514 38.9409 15.3709 39.2512 15.3298 39.5564C15.2888 39.8616 15.188 40.1557 15.0332 40.4219L15.042 40.416ZM15.042 53.3066C15.352 53.8448 15.4357 54.484 15.2748 55.0839C15.1138 55.6837 14.7214 56.1952 14.1836 56.5059L7.10547 60.6074C6.83885 60.7613 6.54453 60.8612 6.23931 60.9013C5.9341 60.9415 5.62396 60.9211 5.32661 60.8414C4.72609 60.6804 4.21412 60.2875 3.90332 59.749C3.59252 59.2106 3.50835 58.5707 3.66933 57.9702C3.83031 57.3696 4.22326 56.8577 4.76172 56.5469L11.8398 52.4453C12.3771 52.1369 13.0147 52.0538 13.613 52.2141C14.2114 52.3744 14.722 52.7651 15.0332 53.3008L15.042 53.3066Z" fill="black"/>
</svg>
