<svg width="80" height="80" viewBox="0 0 80 80" fill="none" xmlns="http://www.w3.org/2000/svg">
<path d="M60.0744 41.3197V68.9019H41.3055V71.35H60.0744V77.5519H19.9254V75.1038H36.2462V71.35H38.6943V68.9019H36.2462V65.1481H19.9254V41.3197H16.1716V43.7678H17.4773V80H62.5227V43.7678H63.8284V41.3197H60.0744ZM19.9254 71.35H30.0443V68.9019H19.9254V67.5963H33.798V72.6556H19.9254V71.35Z" fill="black"/>
<path d="M67.5828 33.8119H12.4185V36.26H67.5828V33.8119Z" fill="black"/>
<path d="M51.7768 37.5386C49.4379 37.5386 47.5349 39.4415 47.5349 41.7808V46.2705C47.5349 46.9755 46.9615 47.549 46.2563 47.549C44.2015 47.549 42.5297 49.2208 42.5297 51.2756V54.4039C42.5297 55.454 41.6755 56.3081 40.6255 56.3081C39.5757 56.3081 38.7213 55.4539 38.7213 54.4039V41.8911C38.7213 39.4912 36.7688 37.5389 34.3688 37.5389C31.969 37.5389 30.0165 39.4914 30.0165 41.8911V43.1423C30.0165 44.1922 29.1622 45.0465 28.1122 45.0465C27.0622 45.0465 26.208 44.1923 26.208 43.1423V41.7809C26.208 39.4419 24.3051 37.5389 21.966 37.5389H14.9741V39.987H21.9665C22.9557 39.987 23.7605 40.7919 23.7605 41.7811V43.1425C23.7605 45.5423 25.713 47.4947 28.1127 47.4947C30.5126 47.4947 32.4649 45.5422 32.4649 43.1425V41.8912C32.4649 40.8414 33.3191 39.987 34.3691 39.987C35.419 39.987 36.2733 40.8412 36.2733 41.8912V54.404C36.2733 56.8039 38.2258 58.7562 40.6255 58.7562C43.0254 58.7562 44.9777 56.8037 44.9777 54.404V51.2758C44.9777 50.5709 45.5513 49.9973 46.2562 49.9973C48.3112 49.9973 49.9829 48.3256 49.9829 46.2706V41.7809C49.9829 40.7917 50.7877 39.987 51.7768 39.987H65.0255V37.5389H51.7768V37.5386Z" fill="black"/>
<path d="M68.7252 37.5657H66.2771V40.0138H68.7252V37.5657Z" fill="black"/>
<path d="M13.7242 37.5657H11.2761V40.0138H13.7242V37.5657Z" fill="black"/>
<path d="M26.2906 1.17029V2.53498C15.1329 3.14498 6.24243 12.414 6.24243 23.7211V39.9867H9.96915V37.5386H8.69056V23.7211C8.69056 13.7642 16.4837 5.59451 26.2906 4.9881V6.22982H28.7387V1.17029H26.2906Z" fill="black"/>
<path d="M52.567 2.50291V1.17041H50.1189V6.22978H52.567V4.95088C62.9044 4.96604 71.3095 13.3803 71.3095 23.721V37.5385H70.0309V39.9867H73.7577V23.721C73.7577 12.0306 64.2542 2.51807 52.567 2.50291Z" fill="black"/>
<path d="M30.0168 0V7.45328H48.7317V0H30.0168ZM46.2837 5.00516H32.4651V2.44813H46.2837V5.00516Z" fill="#02B4EB"/>
</svg>
