<svg width="354" height="168" viewBox="0 0 354 168" fill="none" xmlns="http://www.w3.org/2000/svg">
<path d="M79.14 72.6756C81.5577 71.8456 83.9612 71.3968 86.4447 71.4415C90.817 71.5201 94.7842 72.818 98.3109 75.4158C98.9014 75.8507 99.464 76.3235 100.1 76.8268C101.734 73.8874 103.883 71.4663 106.615 69.5738C109.353 67.6777 112.41 66.6183 115.747 66.1462C116.448 58.0978 119.396 51.053 124.874 45.1333C129.502 40.1326 135.104 36.6465 141.742 35.0962C155.023 31.9946 166.402 35.5829 176.005 45.1944C183.62 39.4585 191.676 38.9321 200.148 43.5432C203.395 35.0142 208.945 28.4943 217.016 24.1749C222.326 21.3334 228.028 19.9856 234.012 20.0863C242.336 20.2263 249.8 22.9268 256.214 28.2815C262.625 33.634 266.597 40.4721 268.319 48.6413C269.527 49.2227 270.771 49.7413 271.938 50.3967C278.484 54.0727 282.67 59.5674 284.45 66.8577C285.149 69.7224 285.329 72.6339 284.925 75.568C284.877 75.9207 284.958 76.1859 285.253 76.4528C289.917 80.6847 293.064 85.8458 294.668 91.9366C295.672 95.7533 295.867 99.6212 295.457 103.543C295.063 107.306 293.974 110.854 292.283 114.217C290.9 116.969 289.114 119.444 286.982 121.686C284.637 124.152 281.965 126.162 278.993 127.794C278.734 127.937 278.452 128.039 278.02 128.232C278.02 127.773 278.02 127.423 278.02 127.072C278.02 119.585 278.051 112.097 278.008 104.61C277.983 100.169 276.317 96.3618 273.267 93.1435C270.726 90.4636 267.629 88.7969 264.017 88.1054C263.033 87.917 262.012 87.8469 261.008 87.8452C255.056 87.8352 249.315 86.7812 243.728 84.698C235.873 81.7694 227.984 78.9289 220.082 76.1278C215.918 74.6515 211.618 73.6699 207.215 73.2045C205.445 73.0174 203.666 72.8319 201.888 72.8101C194.805 72.7233 187.719 72.5946 180.637 72.6823C171.827 72.7915 163.644 75.1841 156.15 79.8783C151.695 82.6684 147.209 85.4089 142.703 88.1161C138.656 90.5478 134.255 91.8878 129.54 92.3C122.366 92.9272 115.259 93.9953 108.237 95.6317C100.28 97.4861 92.5228 99.936 85.0328 103.204C81.6971 104.659 78.3583 106.139 75.3302 108.175C70.0043 111.757 66.891 116.761 66.0708 123.143C65.9171 124.339 65.8794 125.551 65.7883 126.753C60.7159 125.852 53.8237 120.584 52.375 112.089C50.9099 103.498 55.4981 93.8821 65.7409 90.7921C66.6133 82.1074 70.9812 76.0438 79.14 72.6756ZM237.989 38.8032C238.47 38.6396 238.951 38.4759 239.497 38.2899C236.307 37.5076 234.34 35.5485 233.536 32.2815C232.765 35.6109 230.734 37.5229 227.524 38.3088C230.935 39.1096 232.811 41.1941 233.543 44.3195C234.142 41.7851 235.478 39.906 237.989 38.8032ZM226.648 45.713C225.337 45.139 224.552 44.0973 224.059 42.5456C223.508 44.4476 222.38 45.4995 220.584 46.0473C222.399 46.536 223.464 47.6414 224.092 49.4818C224.654 47.5959 225.82 46.6024 227.45 46.0094C227.161 45.8956 226.974 45.8217 226.648 45.713ZM239.272 48.281C239.663 47.1811 240.445 46.4603 241.603 46.0149C240.372 45.6039 239.632 44.8154 239.179 43.6291C238.771 44.8713 237.994 45.6044 236.788 46.0204C237.98 46.4732 238.802 47.2033 239.272 48.281Z" fill="#019DE0"/>
<path d="M121.04 114.067C123.74 116.494 125.196 119.49 125.708 122.977C125.717 123.038 125.768 123.093 125.841 123.227C127.24 123.227 128.681 123.238 130.123 123.225C137.509 123.162 144.895 123.068 152.281 123.03C165.136 122.964 177.991 122.915 190.847 122.892C195.196 122.885 199.545 122.981 203.895 123.024C206.56 123.05 209.226 123.05 211.891 123.091C214.35 123.128 216.808 123.205 219.267 123.261C219.399 123.264 219.531 123.24 219.716 123.224C220.423 118.412 222.717 114.623 227.017 112.216C230.098 110.491 233.421 109.956 236.872 110.733C243.833 112.299 247.986 118.199 247.733 124.131C247.404 122.965 247.143 121.493 246.58 120.148C244.773 115.832 241.543 113.17 236.918 112.266C232.115 111.327 226.441 113.509 223.707 118.598C222.791 120.303 222.233 122.135 222.258 124.105C222.265 124.639 222.259 125.173 222.259 125.691C222.099 125.765 222.012 125.838 221.923 125.842C220.241 125.904 218.56 125.993 216.877 126.007C212.558 126.044 208.238 126.036 203.919 126.067C198.794 126.105 193.669 126.193 188.544 126.211C178.217 126.247 167.889 126.257 157.561 126.263C152.871 126.266 148.18 126.252 143.489 126.211C138.128 126.165 132.768 126.093 127.408 126.006C126.039 125.983 124.672 125.86 123.224 125.779C123.479 121.691 122.249 118.146 119.262 115.372C116.883 113.163 113.977 112.026 110.701 112.06C104.619 112.124 98.6719 116.428 97.7717 124.37C97.6259 120.905 98.7062 117.848 100.969 115.236C103.09 112.787 105.777 111.25 108.976 110.667C113.518 109.838 117.496 111.07 121.04 114.067Z" fill="#9A9A9A"/>
<path d="M190.719 151.51C192.139 153.219 193.512 154.874 194.97 156.632C195.233 155.804 195.076 155.079 195.105 154.372C195.135 153.631 195.111 152.888 195.111 152.146C195.111 151.371 195.111 150.595 195.111 149.819C195.111 149.077 195.111 148.335 195.111 147.593C195.111 146.861 195.111 146.129 195.111 145.343C197.17 145.343 199.111 145.343 201.121 145.343C201.121 152.58 201.121 159.78 201.121 167.057C200.872 167.086 200.617 167.139 200.361 167.141C199.18 167.15 197.997 167.117 196.817 167.157C196.217 167.177 195.816 166.971 195.44 166.51C193.673 164.345 191.876 162.206 190.093 160.053C189.063 158.809 188.043 157.556 187.012 156.312C186.892 156.168 186.733 156.056 186.444 155.795C186.444 159.661 186.444 163.345 186.444 167.086C184.398 167.086 182.457 167.086 180.444 167.086C180.444 159.859 180.444 152.659 180.444 145.39C180.649 145.358 180.87 145.294 181.091 145.292C182.34 145.282 183.59 145.31 184.838 145.276C185.366 145.262 185.726 145.447 186.049 145.844C187.581 147.721 189.13 149.586 190.719 151.51Z" fill="#999999"/>
<path d="M255.68 161.471C255.68 156.053 255.68 150.737 255.68 145.354C256.062 145.328 256.355 145.29 256.647 145.29C259.986 145.286 263.326 145.248 266.664 145.3C269.05 145.337 271.271 145.99 273.078 147.625C274.509 148.92 275.318 150.57 275.364 152.517C275.387 153.485 275.339 154.471 275.174 155.423C274.861 157.234 273.854 158.628 272.316 159.637C271.982 159.856 271.652 160.08 271.266 160.338C272.81 162.594 274.321 164.803 275.921 167.142C273.662 167.142 271.58 167.139 269.498 167.144C269.041 167.146 268.881 166.8 268.674 166.497C267.668 165.023 266.642 163.563 265.663 162.071C265.348 161.591 264.994 161.385 264.421 161.417C263.653 161.46 262.881 161.428 261.988 161.428C261.988 163.346 261.988 165.179 261.988 167.077C259.859 167.077 257.853 167.077 255.778 167.077C255.576 166.165 255.71 165.227 255.686 164.301C255.661 163.392 255.68 162.482 255.68 161.471ZM261.961 152.469C261.961 153.802 261.961 155.134 261.961 156.569C263.167 156.569 264.236 156.587 265.305 156.561C265.771 156.549 266.241 156.477 266.697 156.379C268.054 156.086 268.985 155.044 269.089 153.742C269.247 151.75 268.036 150.372 266.02 150.305C264.877 150.267 263.732 150.293 262.588 150.303C262.4 150.305 262.213 150.373 261.96 150.423C261.96 151.068 261.96 151.668 261.961 152.469Z" fill="#999999"/>
<path d="M349.698 167.145C345.017 167.145 340.438 167.145 335.802 167.145C335.802 159.833 335.802 152.635 335.802 145.362C341.475 145.362 347.122 145.362 352.843 145.362C352.843 146.902 352.843 148.435 352.843 150.121C351.665 150.174 350.465 150.138 349.268 150.145C348.087 150.151 346.906 150.146 345.725 150.146C344.518 150.146 343.311 150.146 342.042 150.146C342.042 151.338 342.042 152.428 342.042 153.649C345.25 153.649 348.402 153.649 351.626 153.649C351.626 155.272 351.626 156.766 351.626 158.369C348.441 158.369 345.286 158.369 342.055 158.369C342.055 159.702 342.055 160.926 342.055 162.253C345.766 162.253 349.462 162.253 353.303 162.253C353.335 163.909 353.323 165.467 353.31 167.145C352.073 167.145 350.936 167.145 349.698 167.145Z" fill="#999999"/>
<path d="M245.982 158.392C244.267 158.392 242.654 158.392 240.968 158.392C240.968 159.709 240.968 160.934 240.968 162.279C244.719 162.279 248.443 162.279 252.226 162.279C252.226 163.931 252.226 165.465 252.226 167.072C246.393 167.072 240.582 167.072 234.716 167.072C234.716 159.825 234.716 152.627 234.716 145.358C240.402 145.358 246.053 145.358 251.85 145.358C251.913 146.901 251.873 148.458 251.874 150.136C248.194 150.136 244.603 150.136 240.959 150.136C240.959 151.346 240.959 152.436 240.959 153.656C244.174 153.656 247.328 153.656 250.547 153.656C250.547 155.279 250.547 156.773 250.547 158.392C249.032 158.392 247.558 158.392 245.982 158.392Z" fill="#999999"/>
<path d="M142.685 162.287C145.988 162.287 149.192 162.287 152.378 162.287C152.617 163.034 152.662 165.795 152.462 167.079C146.686 167.079 140.899 167.079 135.113 167.079C134.91 166.367 134.856 146.606 135.064 145.35C140.706 145.35 146.359 145.35 152.09 145.35C152.09 146.892 152.09 148.425 152.09 150.083C151.238 150.213 150.337 150.128 149.445 150.142C148.534 150.157 147.623 150.146 146.711 150.146C145.8 150.146 144.889 150.146 143.978 150.146C143.069 150.146 142.159 150.146 141.137 150.146C141.013 151.316 141.097 152.439 141.083 153.709C142.745 153.76 144.319 153.728 145.891 153.734C147.473 153.739 149.054 153.735 150.763 153.735C150.827 155.3 150.796 156.789 150.786 158.391C147.515 158.391 144.359 158.391 141.141 158.391C141.141 159.702 141.141 160.902 141.141 162.237C141.61 162.253 142.098 162.27 142.685 162.287Z" fill="#999999"/>
<path d="M22.1114 167.145C20.3984 167.145 18.7827 167.145 17.0972 167.145C17.1572 166.871 17.1677 166.67 17.2436 166.498C19.6627 161.02 22.0897 155.545 24.5116 150.068C25.1102 148.714 25.6937 147.353 26.2876 145.997C26.4503 145.626 26.5933 145.273 27.1294 145.279C29.0156 145.303 30.9022 145.288 32.8466 145.288C36.0586 152.537 39.2554 159.751 42.5034 167.081C40.23 167.081 38.1241 167.081 35.9621 167.081C35.3959 165.73 34.8248 164.368 34.2327 162.956C31.2414 162.956 28.2514 162.956 25.1321 162.956C24.5864 164.287 24.0165 165.676 23.4144 167.145C23.0055 167.145 22.6071 167.145 22.1114 167.145ZM28.6441 154.093C28.1349 155.447 27.507 156.76 27.0607 158.194C28.857 158.194 30.5263 158.194 32.3301 158.194C31.4906 155.988 30.6781 153.872 29.664 151.601C29.2768 152.535 28.9847 153.24 28.6441 154.093Z" fill="#999999"/>
<path d="M174.279 167.145C173.541 167.145 172.903 167.145 172.188 167.145C171.727 166.011 171.272 164.898 170.824 163.782C170.471 162.903 170.475 162.897 169.514 162.896C167.086 162.894 164.658 162.895 162.23 162.895C161.963 162.895 161.696 162.895 161.367 162.895C160.78 164.32 160.206 165.71 159.628 167.11C157.522 167.11 155.471 167.11 153.292 167.11C153.421 166.731 153.509 166.392 153.649 166.075C156.61 159.367 159.578 152.662 162.54 145.955C162.712 145.565 162.88 145.269 163.403 145.277C165.255 145.305 167.109 145.288 169.061 145.288C172.271 152.527 175.48 159.766 178.751 167.145C177.193 167.145 175.786 167.145 174.279 167.145ZM165.712 152.077C164.893 154.095 164.074 156.112 163.248 158.15C164.672 158.328 167.793 158.276 168.551 158.056C167.74 156.061 166.935 154.071 166.113 152.089C166.079 152.008 165.887 151.993 165.712 152.077Z" fill="#999999"/>
<path d="M215.201 160.673C217.092 161.673 218.995 162.394 221.076 162.622C222.161 162.742 223.228 162.723 224.285 162.468C224.574 162.399 224.859 162.262 225.112 162.102C225.917 161.59 225.998 160.54 225.215 160.004C224.7 159.652 224.086 159.4 223.481 159.233C221.86 158.788 220.207 158.456 218.591 157.996C216.948 157.53 215.442 156.79 214.386 155.367C212.825 153.264 213.034 149.357 215.381 147.25C216.974 145.82 218.898 145.159 220.975 144.909C223.371 144.621 225.737 144.837 228.065 145.48C229.263 145.811 230.284 146.269 231.023 146.89C230.423 148.344 229.811 149.824 229.17 151.375C228.395 151.05 227.705 150.722 226.987 150.468C225.189 149.831 223.349 149.468 221.448 149.931C221.002 150.039 220.547 150.242 220.18 150.515C219.359 151.125 219.389 152.226 220.298 152.681C221.129 153.096 222.057 153.33 222.957 153.591C224.668 154.087 226.429 154.442 228.094 155.059C229.04 155.41 229.996 156.019 230.668 156.764C232.36 158.638 232.377 160.87 231.447 163.09C230.517 165.308 228.648 166.516 226.408 167.093C223.317 167.89 220.197 167.767 217.123 166.95C216.025 166.659 214.973 166.186 213.91 165.771C213.605 165.652 213.335 165.444 212.969 165.23C213.366 164.325 213.725 163.464 214.121 162.621C214.431 161.961 214.789 161.322 215.201 160.673Z" fill="#999999"/>
<path d="M43.8215 162.283C44.0933 161.7 44.3359 161.189 44.6108 160.61C44.9004 160.741 45.1392 160.837 45.3664 160.955C47.5557 162.09 49.8625 162.766 52.3489 162.681C52.9158 162.662 53.4842 162.542 54.04 162.416C54.2918 162.359 54.5404 162.206 54.7461 162.042C55.6373 161.329 55.5873 160.375 54.5732 159.849C53.8932 159.496 53.145 159.252 52.4031 159.045C50.8159 158.605 49.1876 158.297 47.6262 157.784C46.683 157.473 45.7424 156.996 44.96 156.388C42.9679 154.842 42.405 151.855 43.4719 149.397C44.2607 147.58 45.6768 146.459 47.4364 145.707C48.7192 145.158 50.0714 144.963 51.4646 144.859C53.9932 144.671 56.4267 145.018 58.7937 145.878C59.4154 146.104 60.0003 146.431 60.6589 146.738C59.998 148.334 59.3836 149.818 58.7206 151.419C58.3342 151.246 58.0075 151.109 57.6889 150.955C55.9609 150.122 54.1412 149.678 52.2214 149.756C51.6269 149.78 51.0265 149.934 50.4524 150.107C49.7611 150.315 49.2227 150.817 49.1725 151.526C49.1192 152.277 49.6804 152.767 50.3722 152.968C51.6626 153.342 52.969 153.664 54.2741 153.986C55.6822 154.333 57.0556 154.75 58.3811 155.366C61.4627 156.798 62.2914 160.189 61.0453 163.074C60.1991 165.034 58.6367 166.306 56.6806 166.866C51.9634 168.218 47.3578 167.793 42.9744 165.494C42.8591 165.433 42.762 165.338 42.5643 165.19C42.9731 164.246 43.3827 163.3 43.8215 162.283Z" fill="#999999"/>
<path d="M313.081 150.394C314.482 147.976 316.523 146.42 319.053 145.565C322.713 144.329 326.341 144.478 329.834 146.225C331.11 146.863 332.203 147.748 333.111 149.013C331.779 150.218 330.47 151.403 329.095 152.648C328.7 152.262 328.371 151.934 328.035 151.613C325.641 149.33 320.771 149.46 318.854 152.74C317.407 155.216 317.637 158.373 319.507 160.555C321.328 162.68 325.571 163.181 328.092 160.759C328.406 160.458 328.668 160.103 329.028 159.688C330.457 160.982 331.765 162.166 333.108 163.381C331.929 164.981 330.469 166.114 328.69 166.713C324.47 168.136 320.323 168.047 316.47 165.582C313.913 163.946 312.362 161.555 311.808 158.559C311.283 155.722 311.611 153.002 313.081 150.394Z" fill="#999999"/>
<path d="M286.491 153.978C287.225 155.709 287.929 157.37 288.633 159.031C288.708 159.036 288.783 159.042 288.859 159.048C290.807 154.489 292.755 149.93 294.717 145.339C296.764 145.339 298.778 145.339 300.965 145.339C297.863 152.649 294.747 159.856 291.641 167.098C289.556 167.098 287.508 167.098 285.393 167.098C282.303 159.868 279.215 152.643 276.072 145.289C278.319 145.289 280.373 145.295 282.428 145.285C282.922 145.282 283.024 145.64 283.166 145.982C284.264 148.623 285.362 151.265 286.491 153.978Z" fill="#999999"/>
<path d="M112.147 149.985C111.154 150.889 110.213 151.742 109.233 152.631C107.678 150.909 105.894 149.918 103.582 150.088C102.151 150.193 100.915 150.655 99.8575 151.657C97.6969 153.702 97.3538 157.864 99.5314 160.429C100.835 161.965 102.578 162.441 104.531 162.347C106.483 162.254 107.927 161.207 109.229 159.771C110.593 160.996 111.89 162.158 113.234 163.365C112.153 164.926 110.708 166.008 108.991 166.628C104.562 168.228 100.24 168.072 96.2597 165.338C93.5186 163.455 92.1191 160.744 91.7898 157.44C91.5787 155.322 91.8515 153.305 92.7284 151.363C93.9897 148.569 96.1201 146.739 98.951 145.648C100.449 145.071 102.016 144.766 103.591 144.774C106.99 144.789 110.121 145.658 112.584 148.194C112.809 148.425 112.987 148.702 113.226 149.008C112.838 149.358 112.518 149.646 112.147 149.985Z" fill="#999999"/>
<path d="M0.441368 161.876C0.441353 156.322 0.441353 150.869 0.441353 145.352C6.19308 145.352 11.8458 145.352 17.6409 145.352C17.6794 146.911 17.6586 148.469 17.6535 150.13C13.9885 150.13 10.4283 150.13 6.79589 150.13C6.79589 151.696 6.79589 153.162 6.79589 154.78C9.89034 154.83 13.0095 154.773 16.1079 154.811C16.3331 155.588 16.3678 158.454 16.1607 159.657C13.0663 159.657 9.94828 159.657 6.73058 159.657C6.73058 162.185 6.73058 164.596 6.73058 167.075C4.62305 167.075 2.61648 167.075 0.549611 167.075C0.315961 166.237 0.477372 165.364 0.44773 164.505C0.418683 163.663 0.441393 162.82 0.441368 161.876Z" fill="#999898"/>
<path d="M80.0596 145.287C80.5585 145.287 80.9584 145.287 81.4387 145.287C81.4387 146.955 81.4387 148.551 81.4387 150.259C79.2951 150.259 77.1504 150.259 74.8901 150.259C74.7872 151.456 74.8481 152.557 74.8373 153.654C74.8263 154.766 74.8349 155.878 74.8349 156.99C74.8349 158.102 74.8349 159.215 74.8349 160.327C74.8349 161.439 74.8349 162.551 74.8349 163.663C74.8349 164.772 74.8349 165.88 74.8349 166.969C74.0336 167.187 69.6975 167.218 68.5481 167.009C68.5481 161.493 68.5481 155.952 68.5481 150.303C66.2863 150.303 64.144 150.303 61.9363 150.303C61.9363 148.598 61.9363 147.004 61.9363 145.287C67.9728 145.287 73.9667 145.287 80.0596 145.287Z" fill="#999999"/>
<path d="M116.201 145.312C118.214 145.295 120.131 145.295 122.173 145.295C122.173 150.953 122.173 156.53 122.173 162.218C125.656 162.218 129.016 162.218 132.446 162.218C132.446 163.893 132.446 165.456 132.446 167.083C126.96 167.083 121.509 167.083 115.977 167.083C115.953 166.782 115.91 166.492 115.91 166.202C115.906 159.558 115.904 152.914 115.915 146.27C115.916 145.956 116.04 145.642 116.201 145.312Z" fill="#999999"/>
<path d="M187.916 17.4021C186.977 19.7348 185.375 21.2943 183.056 22.0188C178.085 23.5723 173.206 19.8009 173.207 14.7985C173.207 11.0456 176.054 7.68142 179.922 7.24356C184.317 6.7459 187.918 10.0804 188.304 13.7669C188.435 15.011 188.247 16.1598 187.916 17.4021Z" fill="#999999"/>
<path d="M303.14 167.145C302.779 167.129 302.515 167.113 302.186 167.093C302.186 159.858 302.186 152.662 302.186 145.462C302.86 145.245 306.971 145.19 308.331 145.395C308.331 152.581 308.331 159.777 308.331 167.1C307.496 167.198 306.629 167.13 305.767 167.143C304.924 167.154 304.081 167.145 303.14 167.145Z" fill="#999999"/>
<path d="M268.895 13.3182C270.811 12.5099 272.6 12.6795 274.262 13.7403C276.341 15.0679 277.191 17.1403 276.885 19.2446C276.446 22.2644 274.596 23.7469 272.477 24.1627C269.877 24.6731 267.649 23.9112 266.131 21.3302C264.887 19.2145 265.347 16.1688 267.149 14.4533C267.626 13.9996 268.26 13.7115 268.895 13.3182Z" fill="#999999"/>
<path d="M294.368 69.586C295.674 67.9653 297.275 67.0827 299.321 67.1753C302.438 67.3165 304.694 69.8476 304.789 72.7169C304.886 75.6634 302.682 78.1253 300.106 78.5776C297.079 79.109 293.737 77.1474 293.373 73.4908C293.235 72.1114 293.531 70.8097 294.368 69.586Z" fill="#999999"/>
<path d="M101.497 46.1859C102.678 47.7175 102.851 49.4092 102.436 51.1276C101.871 53.4644 99.5066 55.0931 97.0403 55.0023C94.5388 54.9102 92.4848 53.2599 91.9536 50.7474C91.4501 48.3653 92.3254 46.1298 94.5952 44.8365C96.679 43.6492 99.2982 44.0146 101.022 45.7015C101.166 45.8428 101.307 45.9875 101.497 46.1859Z" fill="#999999"/>
<path d="M49.085 83.4678C49.7115 80.8846 52.6826 79.6944 54.8928 81.1034C56.5299 82.147 56.8758 83.6938 56.4954 85.4138C56.1454 86.9963 54.6444 88.1181 53.0442 88.1687C51.2204 88.2263 49.6941 87.2659 49.2375 85.6418C49.0522 84.9826 49.1214 84.2521 49.085 83.4678Z" fill="#999999"/>
<path d="M237.916 38.8259C235.478 39.9057 234.142 41.7849 233.543 44.3192C232.811 41.1938 230.935 39.1093 227.524 38.3085C230.734 37.5226 232.765 35.6106 233.536 32.2812C234.34 35.5482 236.307 37.5073 239.497 38.2896C238.95 38.4757 238.47 38.6393 237.916 38.8259Z" fill="#F9FDFE"/>
<path d="M226.717 45.7305C226.974 45.8218 227.161 45.8957 227.45 46.0094C225.82 46.6025 224.654 47.5959 224.092 49.4818C223.464 47.6414 222.399 46.5361 220.584 46.0473C222.38 45.4995 223.508 44.4476 224.059 42.5457C224.552 44.0973 225.337 45.139 226.717 45.7305Z" fill="#F4FBFE"/>
<path d="M239.227 48.3216C238.802 47.2033 237.98 46.4733 236.788 46.0205C237.995 45.6045 238.771 44.8714 239.179 43.6292C239.632 44.8154 240.372 45.6039 241.603 46.015C240.445 46.4603 239.663 47.1812 239.227 48.3216Z" fill="#F4FBFE"/>
</svg>
