<svg width="60" height="60" viewBox="0 0 60 60" fill="none" xmlns="http://www.w3.org/2000/svg">
<g clip-path="url(#clip0_1538_158)">
<path d="M8.00008 25H52.0001C52.3001 25 52.6001 24.9 52.8002 24.6C53.0002 24.3 53.1002 24 53.0002 23.7C50.1 13.3 40.7001 6 30 6C19.3 6 9.90004 13.3 7 23.7C7 24 7 24.4 7.20004 24.6C7.40008 24.9 7.70008 25 8.00008 25ZM30 8.00004C39.3 8.00004 47.7 14.1 50.6001 23H9.30004C12.3 14.1 20.7 8.00004 30 8.00004Z" fill="black"/>
<path d="M53.0001 29.2001C52.6002 29.1001 52.1001 29.1001 51.7002 29.1001C47.4002 29.1001 44.7002 31.3001 44.7002 34.9001C44.7002 38.1001 46.9002 40.9001 50.1002 41.7001C50.1002 41.7001 50.2002 41.7001 50.3002 41.7001C50.7002 41.7001 51.0002 41.5001 51.0002 41.3001C52.8002 37.8001 53.8002 35.3001 53.8002 31.3002C53.8002 31.0002 53.8002 30.8001 53.8002 30.5001V30.1002C53.8 29.7001 53.5 29.3001 53.0001 29.2001ZM52.1001 31.1001C52.1001 34.4001 51.3001 36.6001 49.9002 39.4002C48.0001 38.7001 46.8001 36.9001 46.8001 34.8001C46.8001 31.4001 50.3001 31.0001 51.8001 31.0001C51.8001 31.0001 51.9001 31.0001 52.1001 30.9001C52.1001 31.0001 52.1001 31.0001 52.1001 31.1001Z" fill="black"/>
<path d="M30.1 42.3C23.8 42.3 18.1999 44.5 15.7999 48.0001C15.4999 48.5001 15.5999 49.1001 16 49.4001C20.1 52.4001 24.9 54 30 54C35 54 39.9 52.4001 44.1 49.4001C44.5 49.1001 44.6 48.4001 44.3 48.0001C41.9 44.5 36.3 42.3 30.1 42.3ZM30 52C25.7 52 21.6 50.8 18 48.4C20.4 45.9 25 44.3 30 44.3C35 44.3 39.7 45.8999 42 48.4C38.4 50.8 34.3 52 30 52Z" fill="black"/>
<path d="M30 0C13.5 0 0 13.5 0 30C0 46.5 13.5 60 30 60C46.5 60 60 46.5 60 30C60 13.5 46.5 0 30 0ZM30 58C14.6 58 2.00004 45.4 2.00004 30C2.00004 14.6 14.6 2.00004 30 2.00004C45.4 2.00004 58 14.6 58 30C58 45.4 45.4 58 30 58Z" fill="black"/>
<path d="M8.1 27.8C7.70004 27.8 7.2 27.8 6.80004 27.9C6.40008 28 6 28.3 6 28.8V29.2C6 29.5 6 29.7 6 30C6 33.9 6.99996 37.7 8.79996 41.2C9 41.5 9.3 41.7 9.69996 41.7C9.79992 41.7 9.9 41.7 9.69996 41.6C12.9 40.8 15.1 38 15.1 34.8C15.1 31 12 27.8 8.1 27.8ZM10.2 39.5C8.7 36.5 8.00004 33.3 8.00004 30C8.00004 29.9 8.00004 29.9 8.00004 29.8C10.9001 29.7 13.3001 31.9999 13.3001 34.9C13.3 36.9 12.1 38.7 10.2 39.5Z" fill="black"/>
<path d="M20 33C20 35.9001 24.3 38.0001 30 38.0001C35.7 38.0001 39.9999 35.9001 39.9999 33C39.9999 30.1 35.7 28 30 28C24.3 28 20 30.1 20 33ZM38 33C38 34.2 34.9 36 30 36C25.1 36 21.9999 34.2 21.9999 33C21.9999 31.8 25.0999 30 30 30C34.8999 30 38 31.8 38 33Z" fill="black"/>
</g>
<defs>
<clipPath id="clip0_1538_158">
<rect width="60" height="60" fill="white"/>
</clipPath>
</defs>
</svg>
