<svg width="129" height="129" viewBox="0 0 129 129" fill="none" xmlns="http://www.w3.org/2000/svg">
<g clip-path="url(#clip0_1538_27)">
<path d="M110.955 81.0241H127.822V58.7324H102.893C104.383 60.5314 105.727 62.8384 106.324 65.1198C107.593 69.2197 105.372 73.6584 101.36 75.0237C97.2622 76.4189 92.7868 74.178 91.4489 69.9124C90.4432 66.7047 92.5007 65.4178 87.2746 63.5389C85.2558 62.8113 83.9181 60.9713 83.6932 58.9399C83.5935 58.0382 83.7055 57.1334 84.0701 56.2495C83.7078 56.3385 80.1428 57.0236 79.5008 57.0412L78.8463 60.6955C74.5295 63.2082 71.6252 67.8823 71.6252 73.2375V102.984C71.6252 105.983 74.0559 108.414 77.0543 108.414H80.3553V118.085C80.3553 123.916 85.0819 128.642 90.9122 128.642C96.7426 128.642 101.469 123.916 101.469 118.085V108.414H110.599V112.983C110.599 114.517 111.843 115.761 113.377 115.761H127.822V100.875V100.869H116.406C114.545 100.869 113.036 99.3607 113.036 97.4996C113.036 95.6386 114.545 94.1298 116.406 94.1298H127.822V87.7638H110.955C109.094 87.7638 107.585 86.255 107.585 84.394C107.585 82.5329 109.094 81.0241 110.955 81.0241ZM90.6381 93.5321C85.8919 93.5321 81.1799 89.5326 81.1799 83.9628C81.1799 78.7181 85.4314 74.4667 90.6761 74.4667C95.9207 74.4667 100.172 78.7181 100.172 83.9628C100.172 89.4108 95.613 93.5321 90.6381 93.5321Z" fill="#00CCFF"/>
<path d="M100.931 18.9497H90.0573C87.8945 18.9497 86.042 20.4997 85.6608 22.6288L85.1279 25.6049C87.8282 26.2104 90.0404 28.2298 90.8821 31.0129C91.5658 33.2734 91.3399 37.5093 89.1337 41.7887C89.5741 41.5352 90.0965 41.2771 91.5904 40.1975L93.7952 27.882H100.225C100.981 24.9064 101.195 21.7939 100.931 18.9497Z" fill="#00CCFF"/>
<path d="M116.028 18.9497C115.973 22.4786 115.59 25.1177 114.973 27.8823H117.424C117.424 28.7147 117.429 30.8036 117.429 31.5257C117.429 32.9951 118.62 34.186 120.089 34.186H127.822V26.2195V18.9497H116.028Z" fill="#00CCFF"/>
<path d="M24.6052 94.0449L24.3331 91.7582C20.203 92.1821 15.8342 91.8444 11.8244 90.6577L12.2169 93.9552L1.82526 120.235C0.577279 123.391 2.124 126.961 5.2805 128.209C8.43725 129.458 12.0071 127.91 13.255 124.754L24.2175 97.0308C24.5924 96.083 24.7255 95.0569 24.6052 94.0449Z" fill="#00CCFF"/>
<path d="M41.1657 91.1771L40.4099 85.146C36.9059 87.9525 33.0045 89.9073 28.7543 90.9791L28.8452 91.7052L22.836 121.27C22.1601 124.596 24.3081 127.841 27.6344 128.516C30.9588 129.192 34.2045 127.045 34.8806 123.718L41.0903 93.1653C41.2232 92.5113 41.2486 91.8397 41.1657 91.1771Z" fill="#00CCFF"/>
<path d="M72.9832 52.9771C72.4967 51.3276 70.7643 50.3859 69.1153 50.8721L58.0127 54.1489C59.0609 55.9293 59.6024 58.0298 59.4682 60.2125L60.9576 59.7728L60.0772 63.1604C59.6446 64.8247 60.6431 66.5247 62.3076 66.9571C63.9704 67.3898 65.6714 66.3923 66.1043 64.7267L67.9264 57.716L70.8774 56.8452C72.5274 56.358 73.4701 54.6263 72.9832 52.9771Z" fill="#00CCFF"/>
<path d="M23.9618 22.7626C29.9947 22.7626 34.8854 17.667 34.8854 11.3813C34.8854 5.09558 29.9947 0 23.9618 0C17.929 0 13.0383 5.09558 13.0383 11.3813C13.0383 17.667 17.929 22.7626 23.9618 22.7626Z" fill="#00CCFF"/>
<path d="M39.5393 68.6011C39.081 69.3953 38.5717 70.2041 38.0069 71.0061C33.365 77.6002 27.2437 80.7643 19.8083 80.4118C12.7775 80.0776 8.70442 76.6827 6.34766 72.6993C6.15068 72.3666 5.82782 72.1274 5.4522 72.036C5.07657 71.9448 4.67934 72.0083 4.3517 72.2136L1.49369 74.004C0.836159 74.4161 0.62611 75.2746 1.01832 75.9437C4.72306 82.266 10.8569 86.2208 19.5126 86.6323C29.1964 87.0909 37.3758 82.8251 43.2224 74.4143C44.339 72.8078 45.2666 71.196 46.0307 69.6847L39.5393 68.6011Z" fill="#00CCFF"/>
<path d="M50.0251 54.1334L32.0233 51.129L23.8932 32.5447L34.7818 46.4923L37.8614 47.0061V33.8593C37.8614 29.6131 34.5579 26.1709 30.4826 26.1709H17.3231C13.2478 26.1709 10.0054 29.6131 10.0054 33.8593V68.2479C11.8586 72.782 14.9586 74.9119 20.0568 75.1543C25.9577 75.435 30.5813 72.5303 33.9363 67.6682C26.1042 66.3612 26.5547 66.4441 26.119 66.3434C21.6718 65.3155 19.0972 61.5603 18.6658 59.3098L14.495 37.5434L23.6035 58.3638C24.1964 59.7193 25.2879 60.7562 26.6158 61.2537C27.2778 61.5017 25.705 61.1979 48.3578 64.9786C51.2326 65.459 53.9354 63.4178 54.3954 60.4248C54.8529 57.448 52.9155 54.6156 50.0251 54.1334Z" fill="#00CCFF"/>
<path d="M110.859 12.7796C110.414 11.0804 108.73 10.0784 107.099 10.5427C105.526 10.9905 104.49 12.6877 104.959 14.4844C105.887 18.0248 106.044 23.3351 105.08 27.7838C104.284 31.0232 103.863 32.5176 101.822 36.0299C100.711 38.0141 98.148 40.8515 97.4553 41.4346C92.1182 46.4575 85.9065 48.8165 79.1864 50.6991C78.7093 50.8323 78.4967 51.2589 78.5653 51.6614C78.6422 52.1124 79.0553 52.417 79.4927 52.3363C86.6901 51.0036 93.3765 49.1429 99.6566 44.1861C100.472 43.6052 103.6 40.7311 105.155 38.4648C106.792 36.1473 108.2 33.9159 109.791 29.1202C111.843 22.413 111.465 15.1005 110.859 12.7796Z" fill="#00CCFF"/>
<path d="M86.3852 32.3722C85.8701 30.6692 84.1277 29.7235 82.4928 30.2602C80.9418 30.7692 79.9021 32.5006 80.5028 34.4363C80.6513 34.6079 80.7935 35.5649 80.8106 35.7978C81.0317 37.3089 80.6445 38.8058 80.0606 40.0882C79.0305 42.2086 77.6662 43.2365 76.1463 44.3741C75.8881 44.5689 75.7632 44.9191 75.8597 45.2553C75.9815 45.6799 76.4107 45.9211 76.8187 45.794C78.4518 45.2839 79.9822 44.8937 82.3634 42.937C82.6428 42.6626 83.8204 41.546 84.4184 40.5365C86.3314 37.5036 86.8289 33.8398 86.3852 32.3722Z" fill="#00CCFF"/>
<path d="M101.803 66.4068C100.962 63.1839 98.5592 60.4714 95.8949 58.9862C93.0919 57.5244 90.9578 57.5561 89.1188 57.5574C88.8 57.5581 88.5007 57.7662 88.3907 58.0981C88.2515 58.5174 88.4651 58.9744 88.8671 59.1194L88.9535 59.1503C90.5485 59.7252 92.1758 60.2747 93.7977 62.0513C95.156 63.6186 95.8595 65.3568 95.8085 67.2648C95.8044 67.2877 95.7941 67.303 95.7808 67.3321C95.7276 69.7783 97.8899 71.2422 99.8454 70.5763C101.334 70.0696 102.409 68.3947 101.803 66.4068Z" fill="#00CCFF"/>
</g>
<defs>
<clipPath id="clip0_1538_27">
<rect width="128.642" height="128.642" fill="white"/>
</clipPath>
</defs>
</svg>
