<svg width="162" height="111" viewBox="0 0 162 111" fill="none" xmlns="http://www.w3.org/2000/svg">
<path d="M22.8942 95.7301V103.352C22.8942 107.613 19.4603 110.974 15.2902 110.974C11.12 110.974 7.68611 107.613 7.68611 103.352V95.7301H0V70.8153C0 65.324 3.67951 60.8168 8.66681 59.4237L17.5792 38.197C18.8876 35.0829 21.9129 32.8696 25.5104 32.8696H71.0532C74.6506 32.8696 77.6759 35.0824 78.9843 38.197L87.8147 59.4237C92.8026 60.8168 96.4815 65.3246 96.4815 70.8153V95.7301H88.7139V103.352C88.7139 107.613 85.28 110.974 81.1098 110.974C76.8582 110.974 73.5058 107.613 73.5058 103.352V95.7301H22.8942ZM15.7802 82.0435C20.0319 82.0435 23.4663 78.6016 23.4663 74.3395C23.4663 70.0779 20.0324 66.6354 15.7802 66.6354C11.528 66.6354 8.09412 70.0773 8.09412 74.3395C8.09469 78.601 11.5286 82.0435 15.7802 82.0435ZM87.8967 74.3395C87.8967 70.0779 84.4628 66.6354 80.2106 66.6354C75.959 66.6354 72.5245 70.0773 72.5245 74.3395C72.5245 78.601 75.9584 82.0435 80.2106 82.0435C84.4628 82.0435 87.8967 78.601 87.8967 74.3395ZM80.2112 59.0136L72.6071 40.6554C72.2801 39.754 71.3808 39.0983 70.3175 39.0983H26.1646C25.1833 39.0983 24.2841 39.754 23.957 40.6554L16.3529 59.0136H80.2112Z" fill="#00CCFF"/>
<path d="M123.766 6.47037C124.091 6.38074 124.439 6.42422 124.732 6.59078C125.026 6.75734 125.241 7.03333 125.331 7.35858C125.421 7.68401 125.378 8.03216 125.211 8.32576C125.045 8.61918 124.768 8.83473 124.443 8.92458L123.167 9.27677L124.245 13.1864C124.711 14.8875 124.655 16.6891 124.086 18.3584C123.517 20.0277 122.46 21.488 121.053 22.5505L121.747 25.0678L143.841 18.972L145.959 26.6481L147.835 26.1308L147.27 24.0832C147.18 23.7579 147.222 23.4099 147.389 23.1163C147.555 22.8228 147.832 22.608 148.158 22.5182C148.483 22.4284 148.831 22.4708 149.125 22.6374C149.418 22.804 149.633 23.081 149.723 23.4064L151.528 29.9481C151.617 30.2735 151.575 30.6215 151.409 30.915C151.242 31.2086 150.965 31.4234 150.64 31.5132C150.314 31.603 149.966 31.5606 149.673 31.394C149.379 31.2274 149.164 30.9504 149.074 30.625L148.51 28.5784L146.635 29.0958L147.772 33.2172L138.844 35.6802L150.002 51.9784L151.312 53.8923L149.386 55.1844L147.573 56.3999C149.095 58.8545 152.993 63.4371 160.093 61.4785L160.095 61.479C160.421 61.3892 160.769 61.4325 161.062 61.5991C161.356 61.7657 161.571 62.0427 161.661 62.3681C161.75 62.6933 161.707 63.0406 161.541 63.3341C161.374 63.6277 161.098 63.8434 160.772 63.9332C154.763 65.591 150.631 63.318 148.224 61.1233C147.164 60.1445 146.237 59.0312 145.466 57.8128L144.038 58.7721L142.186 60.0146L140.889 58.2004L128.275 40.5545L128.037 40.2229L128.018 40.1532C127.942 40.112 127.823 40.057 127.643 39.9993C126.953 39.7775 125.553 39.5937 123.084 40.0161C121.384 40.3071 119.422 40.7642 117.44 41.2846L120.604 52.7517C120.607 52.774 120.609 52.7997 120.612 52.8205C120.614 52.8413 120.613 52.8634 120.614 52.8846C120.615 52.9057 120.61 52.9269 120.615 52.9453C120.615 52.9666 120.613 52.9882 120.61 53.0093C120.609 53.0294 120.608 53.0499 120.606 53.0703C120.603 53.0907 120.598 53.1104 120.596 53.1308L120.585 53.1926L120.569 53.2518C120.562 53.2715 120.558 53.2923 120.551 53.3124L120.526 53.3791L120.507 53.4288C120.489 53.4666 120.47 53.5049 120.449 53.5421L118.128 57.6207C118.045 57.7661 117.935 57.8942 117.803 57.997C117.671 58.0997 117.52 58.1753 117.359 58.2198C117.198 58.2643 117.03 58.2767 116.864 58.2562C116.698 58.2356 116.538 58.183 116.392 58.1006C116.247 58.0182 116.12 57.9074 116.017 57.7756C115.914 57.6438 115.838 57.493 115.793 57.3318C115.749 57.1707 115.736 57.0023 115.757 56.8364C115.777 56.6705 115.831 56.5101 115.913 56.3647L117.968 52.7445L114.991 41.9552C111.791 42.8655 108.804 43.8369 107.093 44.4343L104.775 45.2438L103.933 42.1928L98.2225 40.708L96.2117 41.2627C95.8863 41.3525 95.5384 41.3101 95.2448 41.1435C94.9512 40.9769 94.7364 40.6999 94.6466 40.3745C94.5569 40.0491 94.5992 39.7012 94.7658 39.4076C94.9325 39.114 95.2094 38.8993 95.5348 38.8095L97.5457 38.2547L101.687 34.0507L100.803 30.8462L115.521 26.7856L114.826 24.2684C113.073 24.0781 111.417 23.366 110.072 22.2247C108.728 21.0834 107.756 19.5653 107.283 17.8661L106.205 13.9565L104.927 14.3089C104.602 14.3987 104.254 14.3554 103.96 14.1888C103.667 14.0222 103.452 13.7452 103.362 13.4198C103.272 13.0946 103.315 12.7472 103.481 12.4538C103.648 12.1602 103.925 11.9445 104.25 11.8547L123.766 6.47037ZM91.5077 44.3861C91.7444 44.1471 92.0663 44.012 92.4027 44.0095C92.7391 44.007 93.063 44.1374 93.3033 44.3729L93.3087 44.3744C93.5488 44.6114 93.6847 44.9347 93.6871 45.2719C93.6893 45.6089 93.558 45.9328 93.3218 46.173L90.2079 49.3429C90.0907 49.4619 89.9516 49.5571 89.7977 49.6222C89.6437 49.6873 89.4781 49.7219 89.3109 49.7231C88.9733 49.7255 88.6488 49.5931 88.4084 49.3562C88.1679 49.1192 88.0307 48.7967 88.0282 48.4591C88.0257 48.1215 88.1578 47.7961 88.3948 47.5557L91.5077 44.3861ZM100.666 38.7138L103.152 39.362L102.468 36.8814L100.666 38.7138ZM89.9091 40.3616C90.2345 40.2718 90.5824 40.3142 90.876 40.4808C91.1696 40.6474 91.3844 40.9244 91.4742 41.2498C91.5639 41.5752 91.5216 41.9231 91.3549 42.2167C91.1883 42.5103 90.9113 42.7251 90.5859 42.8149L86.3017 43.9969C85.9765 44.0865 85.6291 44.0438 85.3357 43.8774C85.0421 43.7108 84.8264 43.4341 84.7366 43.1087C84.6468 42.7832 84.6901 42.4351 84.8568 42.1415C85.0233 41.8482 85.2997 41.6334 85.6248 41.5436L89.9091 40.3616ZM85.7344 34.9093C85.903 34.8893 86.0739 34.903 86.237 34.95L90.5357 36.0747C90.6974 36.1172 90.8487 36.1919 90.9819 36.293C91.115 36.3942 91.2271 36.5206 91.3114 36.6651C91.3957 36.8095 91.4509 36.9693 91.4735 37.135C91.496 37.3005 91.4856 37.4691 91.4431 37.6306L91.447 37.6265C91.405 37.7881 91.3315 37.9399 91.2309 38.0731C91.1301 38.2066 91.0033 38.319 90.8591 38.4037C90.715 38.4882 90.5558 38.5434 90.3904 38.5664C90.2248 38.5894 90.0561 38.5802 89.8943 38.5381L85.5966 37.4131C85.4311 37.3747 85.2751 37.3032 85.1375 37.2034C84.9999 37.1036 84.8829 36.9774 84.7949 36.8319C84.7071 36.6866 84.6499 36.525 84.6254 36.357C84.6009 36.1889 84.6098 36.0175 84.6525 35.8531C84.6953 35.6887 84.7704 35.5339 84.8737 35.399C84.977 35.2642 85.1066 35.1512 85.2542 35.0671C85.4019 34.983 85.5657 34.9294 85.7344 34.9093ZM117.438 24.1636L117.973 26.109L119.29 25.7457L118.753 23.8008L118.71 23.8127C118.643 23.8445 118.57 23.8645 118.5 23.8839L117.693 24.1065C117.623 24.1224 117.552 24.1322 117.483 24.1511L117.438 24.1636ZM108.659 13.2794L109.738 17.189C110.106 18.5128 110.899 19.6791 111.996 20.5078C113.092 21.3365 114.43 21.7823 115.804 21.7759C116.044 21.7748 116.284 21.7585 116.521 21.728C117.413 21.62 118.272 21.3204 119.038 20.8504C119.803 20.3803 120.459 19.7507 120.96 19.0042C121.46 18.2576 121.793 17.4113 121.937 16.5241C122.08 15.6371 122.03 14.7296 121.791 13.8635L120.713 9.95387L108.659 13.2794Z" fill="#00C3FF"/>
</svg>
