<svg width="129" height="130" viewBox="0 0 129 130" fill="none" xmlns="http://www.w3.org/2000/svg">
<path d="M120.743 72.7355L111.944 46.3486C110.668 42.5068 108.213 39.1648 104.928 36.7975C101.643 34.4302 97.6947 33.1579 93.6449 33.1615H34.9971C30.9473 33.1579 26.9995 34.4302 23.7144 36.7975C20.4293 39.1648 17.9742 42.5068 16.6977 46.3486L7.89862 72.7355C5.55927 73.7148 3.56153 75.3633 2.15626 77.4738C0.750993 79.5843 0.000840433 82.0628 0 84.598V103.887C0 108.632 2.59857 112.734 6.4321 114.965V123.175C6.4321 124.881 7.10976 126.516 8.31602 127.722C9.52227 128.927 11.1583 129.605 12.8642 129.605H19.2963C21.0022 129.605 22.6382 128.927 23.8445 127.722C25.0507 126.516 25.7284 124.881 25.7284 123.175V116.746H102.914V123.175C102.914 124.881 103.591 126.516 104.798 127.722C106.004 128.927 107.64 129.605 109.346 129.605H115.778C117.484 129.605 119.12 128.927 120.326 127.722C121.532 126.516 122.21 124.881 122.21 123.175V114.965C124.161 113.846 125.783 112.233 126.913 110.288C128.042 108.343 128.638 106.135 128.642 103.887V84.598C128.642 79.255 125.381 74.6836 120.743 72.7355ZM34.9971 46.0206H93.6385C94.989 46.0203 96.3054 46.4449 97.401 47.2343C98.4966 48.0236 99.3158 49.1377 99.7426 50.4185L106.856 71.7389H21.7855L28.893 50.4185C29.7742 47.7888 32.2313 46.0206 34.9971 46.0206ZM22.5123 103.887C21.2449 103.886 19.99 103.636 18.8192 103.151C17.6484 102.666 16.5847 101.955 15.6887 101.059C13.8794 99.2488 12.8633 96.7946 12.8642 94.2359C12.8651 91.6772 13.8827 89.2236 15.6933 87.415C17.5039 85.6063 19.9591 84.5907 22.5188 84.5916C25.0785 84.5924 27.533 85.6097 29.3424 87.4195C31.1518 89.2294 32.1678 91.6836 32.1669 94.2423C32.1661 96.801 31.1484 99.2546 29.3378 101.063C27.5273 102.872 25.072 103.888 22.5123 103.887ZM106.13 103.887C103.57 103.886 101.115 102.869 99.306 101.059C97.4967 99.2488 96.4806 96.7946 96.4815 94.2359C96.4823 91.6772 97.5 89.2236 99.3106 87.415C101.121 85.6063 103.576 84.5907 106.136 84.5916C108.696 84.5924 111.15 85.6097 112.96 87.4195C114.769 89.2294 115.785 91.6836 115.784 94.2423C115.783 96.801 114.766 99.2546 112.955 101.063C111.145 102.872 108.689 103.888 106.13 103.887ZM45.0247 16.3032C45.0569 9.30788 38.3546 3.11622 36.1034 1.23236C35.8987 1.0584 35.6388 0.962891 35.3701 0.962891C35.1015 0.962891 34.8415 1.0584 34.6369 1.23236C32.3728 3.10336 25.6962 9.18572 25.7284 16.2968C25.7284 22.0513 30.0572 26.732 35.3765 26.732C40.6959 26.732 45.0247 22.0513 45.0247 16.3032ZM73.9691 16.3032C74.0013 9.30788 67.2991 3.10979 65.0478 1.23236C64.8431 1.0584 64.5832 0.962891 64.3146 0.962891C64.0459 0.962891 63.786 1.0584 63.5813 1.23236C61.3108 3.10336 54.6343 9.19215 54.6664 16.3032C54.6728 22.0513 59.0016 26.732 64.321 26.732C69.6403 26.732 73.9691 22.0513 73.9691 16.3032ZM102.914 16.3032C102.946 9.30788 96.2435 3.10979 93.9923 1.23236C93.7876 1.0584 93.5277 0.962891 93.259 0.962891C92.9903 0.962891 92.7304 1.0584 92.5257 1.23236C90.2617 3.10336 83.5851 9.18572 83.6173 16.2968C83.6173 22.0513 87.9461 26.732 93.2654 26.732C98.5848 26.732 102.914 22.0513 102.914 16.3032Z" fill="#00CCFF"/>
</svg>
