<svg width="91" height="91" viewBox="0 0 91 91" fill="none" xmlns="http://www.w3.org/2000/svg">
<g clip-path="url(#clip0_947_689)">
<path d="M43.1839 2.70307C42.106 1.62518 40.3584 1.62518 39.2805 2.70307L30.0682 11.9154C28.9903 12.9933 28.9903 14.7409 30.0682 15.8188L74.6305 60.3809C75.7084 61.4588 77.456 61.4588 78.5339 60.3809L87.7462 51.1686C88.8241 50.0907 88.8241 48.3431 87.7462 47.2652L43.1839 2.70307Z" fill="#00CCFF"/>
<path d="M77.8091 57.2023L33.247 12.64C32.1691 11.5621 32.1691 9.81446 33.247 8.73657L30.0682 11.9154C28.9903 12.9933 28.9903 14.7409 30.0682 15.8188L74.6305 60.3809C75.7084 61.4588 77.456 61.4588 78.5339 60.3809L81.7127 57.2021C80.6348 58.2802 78.887 58.2802 77.8091 57.2023Z" fill="#02B4EB"/>
<path d="M25.31 57.3232L34.2299 66.243C34.664 66.6774 35.3682 66.6774 35.8026 66.243L37.5098 64.5359C37.9439 64.1017 37.9439 63.3975 37.5098 62.9631L28.5899 54.0433C28.1557 53.6089 27.4516 53.6089 27.0172 54.0433L25.31 55.7505C24.8758 56.1847 24.8758 56.8888 25.31 57.3232Z" fill="#00CCFF"/>
<path d="M37.5095 62.9634L34.3307 59.7845C34.7649 60.2187 34.765 60.9229 34.3307 61.3573L32.6235 63.0644C32.1891 63.4988 31.4851 63.4988 31.0508 63.0644L34.2296 66.2433C34.6638 66.6775 35.368 66.6776 35.8023 66.2433L37.5095 64.5361C37.9439 64.1017 37.9439 63.3976 37.5095 62.9634Z" fill="#E58200"/>
<path d="M26.3378 58.3516L33.201 65.2148L12.154 88.3453C11.2977 89.3167 9.79921 89.3639 8.88356 88.4483L3.10458 82.6693C2.18893 81.7537 2.23604 80.2551 3.20758 79.3989L26.3378 58.3516Z" fill="#00CCFF"/>
<path d="M12.1539 88.3453L33.2011 65.215L30.0222 62.0361L8.97524 85.1665C8.11901 86.1379 6.62048 86.1851 5.70483 85.2695L8.88366 88.4483C9.79931 89.364 11.2977 89.3167 12.1539 88.3453Z" fill="#E58200"/>
<path d="M24.3281 60.1795L31.3724 67.2236L33.2005 65.2149L26.337 58.3516L24.3281 60.1795Z" fill="#00D0FF"/>
<path d="M31.3741 67.2236L33.2023 65.215L30.0234 62.0361L28.1953 64.045L31.3741 67.2236Z" fill="#00CCFF"/>
<path d="M88.7326 46.2791L76.7623 34.3089C76.2177 33.7645 75.3346 33.7645 74.7902 34.3089C74.2456 34.8536 74.2456 35.7366 74.7902 36.2812L86.7605 48.2513C87.0184 48.5092 87.1604 48.852 87.1604 49.2167C87.1604 49.5815 87.0184 49.9244 86.7605 50.1821L77.5482 59.3946C77.2903 59.6525 76.9475 59.7944 76.5828 59.7944C76.2182 59.7944 75.8751 59.6523 75.6172 59.3945L31.0547 14.8327C30.5223 14.3001 30.5223 13.4338 31.0547 12.9014L35.7226 8.2335C35.723 8.23314 35.7231 8.23297 35.7235 8.23262C35.7238 8.23227 35.724 8.23209 35.7244 8.23174L40.2671 3.68902C40.7995 3.15658 41.6658 3.15658 42.1984 3.68902L71.0269 32.5175C71.5714 33.0619 72.4546 33.0619 72.999 32.5175C73.5435 31.9728 73.5435 31.0898 72.999 30.5452L44.1703 1.71676C43.3856 0.93207 42.3422 0.5 41.2325 0.5C40.1228 0.5 39.0793 0.93207 38.2946 1.71676L34.7372 5.27439L34.2712 4.8084C32.4963 3.03354 29.6082 3.03354 27.8334 4.8084L19.4331 13.2086C17.6583 14.9837 17.6583 17.8716 19.4331 19.6466L41.8078 42.0215C42.5536 42.7673 42.9646 43.7589 42.9646 44.8137C42.9646 45.8686 42.5538 46.8604 41.8078 47.6062L32.9662 56.4478L29.5757 53.0574C29.1023 52.584 28.4729 52.3235 27.8035 52.3235C27.1339 52.3235 26.5045 52.584 26.0311 53.0574L24.3239 54.7645C23.3483 55.7401 23.3467 57.3262 24.3186 58.3041L14.9646 66.8156C14.3949 67.3338 14.3532 68.2159 14.8716 68.7857C15.39 69.3553 16.2722 69.3971 16.8418 68.8786L26.2928 60.279L31.2746 65.2608L11.1227 87.4066C11.1178 87.4121 11.1129 87.4175 11.108 87.4231C10.8965 87.6631 10.6348 87.706 10.4975 87.7104C10.36 87.7154 10.0962 87.6882 9.86994 87.462L4.09078 81.683C3.86455 81.4568 3.83801 81.1927 3.8424 81.0555C3.84662 80.9183 3.88986 80.6564 4.12963 80.445C4.13525 80.4404 4.1407 80.4353 4.14615 80.4302L12.9352 72.4327C13.5047 71.9145 13.5464 71.0322 13.0282 70.4625C12.5098 69.893 11.6279 69.8513 11.058 70.3697L2.27619 78.3605C1.53105 79.022 1.08598 79.9714 1.05451 80.9677C1.02305 81.9681 1.41082 82.9476 2.11851 83.6554L7.8975 89.4344C8.57865 90.1154 9.51117 90.5 10.472 90.4998C10.5096 90.4998 10.5474 90.4993 10.5852 90.4981C11.5813 90.4666 12.5307 90.0215 13.1922 89.2764L33.2494 67.2341C33.722 67.7042 34.3491 67.9633 35.016 67.9633C35.6855 67.9633 36.315 67.7026 36.7884 67.2292L38.4954 65.522C38.9688 65.0486 39.2296 64.4192 39.2296 63.7496C39.2296 63.0801 38.9689 62.4506 38.4956 61.9772L34.9386 58.4203L43.7803 49.5787C45.0531 48.3058 45.7539 46.6139 45.7539 44.8139C45.7539 43.0139 45.0529 41.322 43.7803 40.0492L21.4054 17.6742C20.7179 16.9869 20.7179 15.8682 21.4054 15.1811L29.8056 6.78084C30.4929 6.09336 31.6116 6.09336 32.2989 6.78066L32.7649 7.24666L29.0823 10.9293C27.4625 12.5491 27.4625 15.1849 29.0823 16.8049L73.6446 61.3671C74.4293 62.1518 75.4726 62.5838 76.5824 62.5838C77.6923 62.5838 78.7358 62.1518 79.5203 61.3671L83.2029 57.6845L84.0749 58.5563C84.3472 58.8286 84.7042 58.9647 85.0611 58.9647C85.4179 58.9647 85.7749 58.8286 86.0472 58.5562C86.5918 58.0116 86.5918 57.1285 86.0472 56.5841L85.1753 55.7122L88.7326 52.1549C90.3526 50.5349 90.3526 47.8991 88.7326 46.2791ZM35.016 65.0572L26.4957 56.537L27.8033 55.2295L36.3236 63.7498L35.016 65.0572Z" fill="#FAFAFA"/>
<path d="M81.4049 52.8805C80.3191 53.9663 78.5586 53.9663 77.4728 52.8805L38.9354 14.3431C37.8496 13.2573 37.8496 11.4968 38.9354 10.411C40.0212 9.32523 41.7817 9.32523 42.8675 10.411L81.4049 48.9484C82.4907 50.0344 82.4907 51.7947 81.4049 52.8805Z" fill="#38D0FF"/>
</g>
<defs>
<clipPath id="clip0_947_689">
<rect width="90" height="90" fill="white" transform="translate(0.5 0.5)"/>
</clipPath>
</defs>
</svg>
