<svg width="100" height="99" viewBox="0 0 100 99" fill="none" xmlns="http://www.w3.org/2000/svg">
<path d="M50 81.1181C64.4787 72.3937 72.275 65.7731 72.275 55.6875V23.5125C66.5206 22.2131 58.8481 21.0375 50 21.0375V81.1181ZM50 6.1875C28.7769 6.1875 12.875 12.375 12.875 12.375C12.875 12.375 12.875 51.8512 12.875 55.6875C12.875 82.2319 42.8225 92.3175 50 99C57.1775 92.4413 87.125 81.9225 87.125 55.6875C87.125 51.8512 87.125 12.375 87.125 12.375C87.125 12.375 71.8419 6.1875 50 6.1875ZM78.4625 55.6875C78.4625 69.9806 66.5206 78.3956 53.2175 86.4394C52.1037 87.12 50.99 87.7387 50 88.3575C48.8862 87.6769 47.7725 86.9963 46.4731 86.1919C35.9544 79.8806 21.5375 71.2181 21.5375 55.6875V18.6862C27.4775 17.0775 37.7487 14.85 50 14.85C62.4369 14.85 72.5844 17.0156 78.4625 18.6862V55.6875Z" fill="#FAFAFA"/>
<path d="M88.7305 71.7187C86.6992 70.625 84.375 70 81.9141 70C81.4062 70 80.8789 70.0195 80.3906 70.0781C73.457 70.8008 67.9883 76.4648 67.5391 83.4766C67.5195 83.7891 67.5 84.082 67.5 84.3945C67.5 87.0898 68.2422 89.5898 69.5117 91.7578C72.0312 95.9766 76.6406 98.8086 81.8945 98.8086C89.8438 98.8086 96.3086 92.3633 96.3086 84.3945C96.3281 78.9063 93.2617 74.1406 88.7305 71.7187ZM89.8828 81.1719L81.2109 89.8438C80.918 90.1367 80.5273 90.293 80.0977 90.293C79.668 90.293 79.2773 90.1367 78.9844 89.8438L73.9648 84.8242C73.3594 84.2187 73.3594 83.2227 73.9648 82.6172C74.5703 82.0117 75.5664 82.0117 76.1719 82.6172L80.0977 86.543L87.6563 78.9844C88.2617 78.3789 89.2578 78.3789 89.8633 78.9844C90.4883 79.5703 90.4883 80.5664 89.8828 81.1719Z" fill="#02B4EB"/>
</svg>
