<svg width="89" height="89" viewBox="0 0 89 89" fill="none" xmlns="http://www.w3.org/2000/svg">
<g clip-path="url(#clip0_947_664)">
<path d="M28 2.78125H44.5V17.0491C44.5 17.6908 44.2479 18.3063 43.7993 18.76C43.3506 19.2138 42.742 19.4688 42.1075 19.4688H30.3925C29.758 19.4688 29.1494 19.2138 28.7007 18.76C28.2521 18.3063 28 17.6908 28 17.0491V2.78125Z" fill="#38D0FF"/>
<path d="M30.75 69.8125H8.75C7.23418 69.8125 5.77466 69.2038 4.6941 68.1109C3.61259 67.0171 3 65.5277 3 63.9688V8.34375C3 6.78483 3.61258 5.29538 4.69409 4.20158C5.77466 3.10874 7.23418 2.5 8.75 2.5H63.75C65.2658 2.5 66.7253 3.10874 67.8059 4.20158C68.8874 5.29538 69.5 6.78483 69.5 8.34375V30.5938C69.5 30.6774 69.4669 30.752 69.4168 30.8026C69.3677 30.8523 69.3071 30.875 69.25 30.875C69.1929 30.875 69.1323 30.8523 69.0832 30.8026C69.0331 30.752 69 30.6774 69 30.5938V8.34375C69 6.95215 68.4537 5.61191 67.4723 4.61936C66.4899 3.62586 65.1516 3.0625 63.75 3.0625H8.75C7.34844 3.0625 6.01007 3.62586 5.02773 4.61936C4.04634 5.6119 3.5 6.95214 3.5 8.34375V63.9688C3.5 65.3604 4.04634 66.7006 5.02773 67.6931C6.01007 68.6866 7.34844 69.25 8.75 69.25H30.75C30.8071 69.25 30.8677 69.2727 30.9168 69.3224C30.9669 69.373 31 69.4476 31 69.5312C31 69.6149 30.9669 69.6895 30.9168 69.7401C30.8677 69.7898 30.8071 69.8125 30.75 69.8125Z" fill="#FAFAFA" stroke="#FAFAFA" stroke-width="5"/>
<path d="M19.75 61.1875H14.25C13.5207 61.1875 12.8212 60.8945 12.3055 60.3729C11.7897 59.8513 11.5 59.1439 11.5 58.4062C11.5 57.6686 11.7897 56.9612 12.3055 56.4396C12.8212 55.918 13.5207 55.625 14.25 55.625H19.75C20.4793 55.625 21.1788 55.918 21.6945 56.4396C22.2103 56.9612 22.5 57.6686 22.5 58.4062C22.5 59.1439 22.2103 59.8513 21.6945 60.3729C21.1788 60.8945 20.4793 61.1875 19.75 61.1875Z" fill="#FAFAFA"/>
<path d="M63.75 86.5C59.3557 86.5 55.0577 85.1823 51.3994 82.7101C47.7408 80.2377 44.885 76.7206 43.1975 72.6003C41.5099 68.4798 41.0679 63.944 41.9286 59.5679C42.7892 55.1918 44.913 51.176 48.0268 48.0267C51.1404 44.8778 55.1039 42.7366 59.4146 41.8694C63.7251 41.0022 68.1933 41.447 72.2555 43.1487C76.3179 44.8506 79.7948 47.7345 82.243 51.4402C84.6915 55.1462 86 59.5063 86 63.9688C86 69.9535 83.649 75.6875 79.4732 79.9108C75.2983 84.1331 69.6419 86.5 63.75 86.5ZM63.75 42C59.4419 42 55.233 43.2922 51.6555 45.7097C48.0784 48.127 45.2946 51.5599 43.6518 55.5709C42.0092 59.5817 41.5798 63.9934 42.4169 68.2494C43.254 72.5055 45.3209 76.4188 48.3605 79.493C51.4004 82.5675 55.277 84.6645 59.5015 85.5143C63.7262 86.3642 68.1049 85.9278 72.0826 84.2614C76.0601 82.5951 79.4551 79.7754 81.8417 76.1631C84.228 72.5511 85.5 68.3075 85.5 63.9688C85.5 58.1513 83.2153 52.5666 79.1395 48.4445C75.0629 44.3215 69.5276 42 63.75 42Z" fill="#FAFAFA" stroke="#FAFAFA" stroke-width="5"/>
<path d="M63.75 77.875C71.3439 77.875 77.5 71.649 77.5 63.9688C77.5 56.2885 71.3439 50.0625 63.75 50.0625C56.1561 50.0625 50 56.2885 50 63.9688C50 71.649 56.1561 77.875 63.75 77.875Z" fill="#38D0FF"/>
<path d="M63.7495 72.3125C63.3876 72.3146 63.0288 72.2445 62.6938 72.1061C62.3587 71.9677 62.054 71.7637 61.797 71.506L56.297 65.9435C55.7792 65.4197 55.4883 64.7094 55.4883 63.9688C55.4883 63.2281 55.7792 62.5178 56.297 61.9941C56.8149 61.4704 57.5172 61.1761 58.2495 61.1761C58.9819 61.1761 59.6842 61.4704 60.202 61.9941L63.7495 65.6097L72.797 56.4316C73.3149 55.9079 74.0172 55.6136 74.7495 55.6136C75.4819 55.6136 76.1842 55.9079 76.702 56.4316C77.2199 56.9553 77.5108 57.6656 77.5108 58.4063C77.5108 59.1469 77.2199 59.8572 76.702 60.381L65.702 71.506C65.4451 71.7637 65.1403 71.9677 64.8053 72.1061C64.4702 72.2445 64.1115 72.3146 63.7495 72.3125Z" fill="white"/>
</g>
<defs>
<clipPath id="clip0_947_664">
<rect width="88" height="89" fill="white" transform="translate(0.5)"/>
</clipPath>
</defs>
</svg>
